<svg class="continents-map" xmlnsRdf="http://www.w3.org/1999/02/22-rdf-syntax-ns#"
    xmlnsDc="http://purl.org/dc/elements/1.1/" xmlnsCc="http://creativecommons.org/ns#"
    xmlns="http://www.w3.org/2000/svg" viewBox="0 0 2754 1398" viewBox="0 0 1920 1080" preserveAspectRatio="xMinYMin slice">
    <metadata>
        <rdfRDF>
            <ccWork rdfAbout="">
                <dcFormat>image/svg+xml</dcFormat>
                <dcType rdfResource="http://purl.org/dc/dcmitype/StillImage"></dcType>
            </ccWork>
        </rdfRDF>
    </metadata>
    <path
        d="m545.5 1336.7 36.443-6.7862 164.73-10.671 38.096-10.599 171.77-0.7929-4.8634-56.879-1.2879 16.899 48.385 59.139-48.16 14.223-26.107 5.2226 200.95 18.384 36.39-20.422 101.79-45.367 177.19-9.7455 145.66-20.194 126.29 7.02 10.492 13.31 177.96-31.697 177.27 1.0473 129.25 31.389-52.863 36.192-46.914 47.765 19.72 16.85-191.45 5.3223h-1289.1l-15.871-16.143 53.738-2.1081-42.48-22.008-97.047-19.25"
        fill="#c0c0c0" fill-rule="evenodd" stroke="#fff" stroke-width="0.2"></path>
    <path
        d="m1005.6 26.406-34.547 2.0254-26.936 1.4238-30.188 5.502 10.32 2.0566 2.1484 2.666 28.158-0.43359-37.092 4.9668-3.5937 4.2559-1.3906 5.3359 1.7012 4.2207-33.152 6.0586 35.074-0.35352 12.822-4.0156 24.258-10.963 10.549-2.623 28.693-4.4355 11.01-5.541 42.52-7.0781-35.391-1.9961zm-110.66 8.9355-21.746 6.1191 8.0566 5.1074 1.7324 8.1992 32.76-11.148zm-13.869 3.7324m-23.764 3.1953m-30.459 4.7617 16.674 4.9355zm27.93 3.375m-63.887 0.41016m107.78 1.873-3.0195 1.2969zm-32.9 1.0801m-78.289 0.88867m37.01 1.3418m120.69 0.35938-1.5801 0.57617zm-140.13 0.54102m55.369 0.0293m18.93 0.7168m26.814 0.48242m-154.46 0.32227-31.41 9.8301zm122.64 1.7891m-65.928 0.55274m40.217 0.74414 8.5703 14.338 56.301 0.34766-42.57-4.8848 0.16992-5.9863zm-6.8398 0.15234-1.4395 0.28906zm-85.74 0.6543m119.28 0.50586m-93.902 0.19922-41.17 4.1387-2 6.0859 29.867 2.1777 14.488-12.25zm-23.646 6.4062 1.502-0.21484zm68.9-5.9727m-3.2363 0.08984m7.5996 0.4082m1.0176 0.17383m0.0547 0.01172-21.631 4.0859 0.34765 6.8984zm-27.695 0.0332m1.8906 2.1152m109.21 0.8457-0.78907 0.07031zm-69.119 0.35938-1.5801 0.57617zm79.959 0.07617m-195.38 0.06445m-26.852 0.35938m142.07 0.55274m-134.03 0.33594m-8.4844 0.05273h0.7207zm96.975 0.23047m41.635 1.6367m-27.719 0.07227-4.0293 0.43164 3.2285-0.06836v-0.0039zm20.113 0.05078m-42.438 1.2422m38.453 5.2559m-9.1484 0.15039-3.1016 1.0801zm-126.34 0.46484-5.9238 14.008zm117.38 1.4531m25.574 1.0547-27.76 17.375-6.25 16.328-30.541 18.648 2.8223-11.793-40.017 3.0519-13.202-1.2394-15.422 8.2656-24.693-9.373-49.389-9.7774-35.178 0.80664-26.384 5.141-5.1625 0.30233-75.559-12.904-38.52 0.85937-65.303 15.84 6.8672 11.205-44.166 8.7402 24.613 7.5391-40.164 17.729-17.064 11.52 2.4054 8.0157 10.774 7.9667 0.79101 9.2148-57.334 20.494 21.35-3.582 33.369-10.373 43.65-20.895 36.693-11.121-9.4746 8.5703 21.211-9.3945 6.4375 2.6973 35.9 6.0352 8.2363 7.2871 9.5781 5.8828-1.4453 13.486-2.6445 8.5488 0.0508 6.5703 0.24023 6.4844 6.4512 4.2324-6.1074 5.4629-2.9629 7.541 9.5742 6.8535 1.2109 5.6426 3.7285 10.383-6.9453 13.426-15.48 9.6484-26.316 38.758-7.4336 41.707 20.021 45.422 5.0469 40.006 17.344 26.77 2.2891-12.922-5.3418-52.393 21.105 46.057 18.57 38.113 45.482 48.264 45.098 14.975 36.107 13.537 19.572 30.191 7.0059-10.08 3.5625-38.9-34.566-4.9004 3.0566-24.822-4.709-23.818-35.846 25.662-24.746-28.967 8.7969-45.5 15.293-14.234 34.576-8.2715 16.574-2.1934 19.049-6.5234 25.955 11.74 5.4102 28.975 9.9668-24.449 7.7793-30.096 38.447-23.832 3.5996-9.8633 1.7949-10.566 1.0059-9.0859 7.0606-6.627 5.2617 4.8223 14.756-18.791 25.748-13.395 23.807-18.031 33.645-11.891-15.521 20.158 32.051-18.445-26.912-20.059-19.15-1.0078 67.129-17.537 35.883-19.756-6.7539-12.096 5.3418-5.4414-12.195-8.7695-5.9473-7.3574-1.1094-13.607-0.55859-10.713-15.266 8.7988-24.695 0.0996 8.7695-17.941-32.959-13.002-29.129 30.943-28.826 46.768-20.461 6.25-9.1738-26.811-39.611-29.332 45.357-30.742 13.809-9.2715 11.289-13.91 35.883-6.5508 20.965-10.887-8.668-9.373-26.811 13.605-4.2344-11.994-0.70508-16.328 24.303-16.428-2.1426-1.0273zm87.182 137.21 0.56641-0.19141zm-328.35 321.76m-129.28-55.117m-0.01 0.29101 0.45898 1.293zm-193.38-260.19 0.66992-0.26172zm101.37-73.111-0.76367 0.20507zm216.79-39.459 0.70508-0.20117zm222.31-30.893-17 6.1836 1.6367 10.977zm-34.492 12.16m75.381-11.809-1.2988 0.43164 0.71875 0.07031v2e-3zm22.258 1.6699-36.078 24.754 33.465 2.0547 23.555 0.53906 5.9785 7.2695 2.4453 16.451-14.799 4.8613-22.234 6.6289 14.996 6.3281 10.662 10.443 18.212-5.5817 16.536 8.8259 6.1465-9.6504-5.834-13.391 7.7812-7.4883 6.8379 6.9844 8.3516-1.6543 15.326-5.0352-10.588-3.8106-2.7969-4.4746-10.801-4.7539-1.7988-3.1699 2.0312-3.5606-6.7832-5.6387 1.2305-7.1856-17.637-1.9824-4.6133-2.7871-9-3.6699-18.428 1.6562-14.691-9-14.119 16.416zm-107.44 0.13476m132.54 0.17578m-144.06 1.0449m-3.1191 1.8125-21.66 5.7363-13.584-5.5357-30.043 14.665-13.529 8.8809 55.867 3.8477 26.941-2.9375-0.60547-23.703zm57.52 1.2637m-1.4746 2.0332-2.0801 1.0801zm88.061 3.0195-0.58008 0.7207zm3.1699 0.15039-0.7207 0.64648zm21.158 1.5801-0.78906 0.28711zm-1.6484 3.3086h0.78907zm6.7695 0.29102-1.5195 0.9375zm2.0801 0.21484m-2.4394 0.72266m8.9199 2.9512-1.5098 0.57617zm-4.9609 0.64063m-158.43 2.8086m70.066 3.7559m-25.977 1.9356-1.2207 1.0801zm48.67 0 0.80078 0.35937zm-84.104 0.20703m82.883 0.30273 1.4414 0.36133zm17.783 0.0371m7.4883 0.39258-5.4004 1.8008zm56.379 0.29102-2.5996 0.9375zm-372.83 0.35351-1.5117 0.57617zm-20.008 0.14258m264.96 0.0742-0.79101 0.14453zm-26.275 0.0723m-210.67 2e-3 -0.79102 0.21484zm-0.50196 6e-3 -0.71875 0.0703zm367.13 0.20898-1.5898 0.57617zm-161.79 0.0742 3.1016 0.2168zm-25.018 0.0371m-190.92 0.37695m323.5 0.52149m-72.992 0.0469m-250.09 0.24805m315.38 0.13672m-68.055 0.30078m-60.906 1.0684-1.584 0.79297zm6.9434 0.70508m-2.5059 0.53515m57.354 1.5391m-66.74 0.0566m148.06 0.79687m2.3437 0.1875m-22.244 0.16211m59.893 0.19727 0.79102 0.14453zm-205.82 0.33593m-33.799 0.24024-1.5117 0.64648 1.4395-0.14258h2e-3zm203.26 0.64453v1.5117zm-44.363 0.625m17.074 0.23437m18.211 0.0977m49.688 0.19336 0.72071 0.14258zm-250.23 0.041m139.79 0.17187m113.75 0.21484m-242.71 0.082-2.1602 0.71876zm245.95 0.5 0.72071 0.14454zm-48.529 0.0664m-199.94 0.15039m2.2324 0.36328-0.79102 0.57618zm-5.2598 0.34961-0.79101 0.2168zm7.1309 0.50977-1.0801 0.50586zm4.5078 0.0898m-15.238 0.13086-2.2324 0.71875zm12.752 0.14063m-4.4062 1.0605m5.0801 0.93555m248.8 0.16211m-250.28 0.5-1.1523 0.79297zm-0.78906 0.2207-0.79297 0.4336zm1.5898 0.50781m249.94 1.002m5.8809 0.86914-0.80078 0.14453zm-255.9 0.14062m255.82 0.0723-3.0195 0.9375zm-4.5312 0.57812h0.7207zm0.36133 0.21289 0.71875 0.2168zm-255.89 0.4375-0.43359 0.71876zm-67.201 4e-3 2.8496 8.6875-34.168 4.5371 30.943-13.205zm68.711 0.27539-1.5117 0.93555zm211.03 1.8809-0.72071 0.57617zm18.289 2.5195 1.4394 0.4336-0.71875-0.36133v-2e-3zm-93.74 0.4336 1.4394 0.64648zm120.16 0.49609-0.78906 0.43164zm-127.8 1.1289m-4.2422 0.86328m-4.1055 0.75195 19.152 16.477zm12.453 0.4668m91.293 0.81445m29.814 0.084-1.3594 0.0703zm-22.797 7.6172m-48.043 1.3027-1.6602 1.2246zm-4.9707 0.4414m54.57 0.63868-0.14062 0.79101zm-0.85937 0.4414-0.93945 0.86133zm-62.35 0.0684 0.71875 0.2168zm-14.127 2.4102m1563.7 2.1914m-1485.2 0.0801h0.73047zm-77.477 0.43555m-502.31 0.2832m578.04 0.0176m-4.2227 0.70312m-77.83 0.42969m-541 0.36524m514.16 3.6699m65.789 0.14453 0.71876 0.28906zm-0.15039 0.28125 0.79883 0.14453zm-230.86 0.12695-11.576 5.2461-23.686 2.1152zm231.62 0.36104m-21.42 0.88086m-21.82 1.1504h0.73046zm1.3008 0 0.71875 0.0703zm78.568 0.22656m-90.43 1.002m84.215 3.8555m-167.35 0.23437m163.13 0.58398m3.3594 1.1211m-504.93 6.0156-1.6543 1.0801zm420.86 0.87305m-423.17 0.41797-0.57617 0.79101zm484.57 1.5039m1549 0.29687m-2033.4 0.29492m-25.662 0.082m33.057 0.15625m496.15 0.0352m-616.58 0.57812m115.41 0.0801m47.857 0.18164m-4.3262 0.85743-1.2402 0.29101zm-51.377 0.82617m0.64062 8e-3 -2.3027 1.0801zm21.316 1.0801m391.68 0.93554m-454.99 0.75m114.46 0.0527m-112.49 3.0117-1.5117 0.57422zm16.533 0.20117m96.188 0.9082m402.6 0.96289m-420.79 1m-91.604 0.47461m110.42 1.0742 0.0449 0.0644zm-164.18 0.13477m49.121 1.5742m-0.51953 0.01-0.79101 0.35742zm-2.5644 1.4023m109.92 0.75391m-105.98 0.79255-0.79297 0.50391zm98.66 0.0879 1.7754 2.7168zm-108.74 0.77149m-21.965 0.58203m20.592 0.5039-13.967 8.7852zm-1.3672 0.28516-0.33413 0.76687zm5.9356 0.0879m562.79 0.55664m1.0469 0.4043m-443.13 1.2168m330.06 0.54297-0.57031 0.72071zm111.3 0.39258m1.2402 0.32227-1.2285 0.64648zm-460.89 0.38281m0.24023 0.1289-0.58203 0.21485zm459.35 0.21485h0.58008zm-457.08 0.13672m-5.7383 0.79297-3.3828 2.7344zm2037.3 0.94531m-2027.4 1.2012-3.627 5.0527zm452.93 0.92774m-114.92 0.0254-0.92968 0.5039zm-0.78906 0.65039-0.65039 0.7207zm-469.28 2.0078m-2.0957 0.0859m143.19 4e-3m-160.55 0.13281m20.537 0.20704m581.89 0.0117m-110.77 0.0254m-0.74218 2.7617-2.2676 2.0703zm-2.2676 2.0703-0.41016 0.39258zm0.30859-4.5684-4.4688 2.5918zm-335.38 0.50195-3.043 1.5234zm340.05 0.28516m106.71 0.0703 2.2305 0.2168-0.7207-0.0703v-2e-3zm-446.09 0.59766m-4.709 0.13086-6.4805 12.812zm454.33 1.2148-1.0098 1.2246zm-113.76 0.87109-1.8691 2.1602zm-344.67 0.78907-0.7207 0.21874zm-5.4707 0.25585m2.2363 0.10352-0.93554 0.43164zm-137.6 0.0703-1.4394 1.1524zm138.24 0.90821m22.707 1.4199m-25.02 0.69922m2.2383 0.14453-0.79101 0.43164zm-1.4394 0.0684-0.7207 0.7207zm-170.58 0.52343m180.37 0.33789-1.1504 1.9434zm-10.805 0.0273m-172.94 0.0527m1.4805 0.40039m172.25 0.16797-1.7988 1.0801zm-169.85 0.43164m180.5 0.23242m-10.066 0.0566m-168.27 0.0703-2.3047 1.5117zm169.64 0.35937-1.3691 1.3691zm-185.21 0.24024m14.775 0.83984-1.4394 0.9375zm-27.641 0.20117m213.69 0.16016-2.9512 1.8711zm-7.0606 0.21875-1.9434 0.64844zm-198.57 0.13086m188.54 0.40234m477.59 0.11723m-463.97 0.85938-0.71875 0.79101zm0.85742 0.35742m-4.4648 1.0898m470.61 0.42383-0.7207 0.35937zm-676.37 0.71875m-19.586 1.5879-1.9434 1.5137zm-3.5742 0.67187m219.86 0.55079-6.0723 4.8672zm-214.73 0.20312m-2.502 0.17773m224.82 0.17579m-2.6172 1.043-0.23828 0.37304zm-0.23828 0.37304-0.0566 0.33399zm4.4844-1.3926-0.79101 0.72071zm-235.51 0.50586m436.68 1.0488-5.1504 16.363zm-434.74 0.38477-1.7988 1.0801zm230.76 0.36132-1.3008 1.5977zm-2.4551 1.3379m-243.47 0.50586m246.43 0.17187-0.93555 0.43359zm5.834 0.21289-2.375 1.7285zm472.1 0.29102m-467.19 0.29687-0.10157 1.5117zm-8.2988 0.42383-0.28906 0.71875zm319.04 0.28516-0.42969 0.86328zm-318.68 0.36328-1.5117 1.873zm3 0.74218m305.81 0.041m-326.96 0.10156m15.633 0.26563-0.93554 1.4394zm321.2 0.14062-0.71875 0.72071zm1638.9 1.166m-1976.7 0.0332m30.049 1.2754-1.7129 2.0156zm-30.252 0.33594-0.7207 0.14453zm15.689 0.0801-0.64843 2.8789zm6.8398 0m-22.029 0.71875-1.2969 0.57617zm2085.7 0.40039m-2067.2 0.32031-1.9453 1.4394zm1967.2 1.3809m-1969.4 0.0527m9.0801 0.43555m2040.4 0.20117m11.484 0.18946m-2058 0.61718m-1.9863 0.57032-0.93555 0.79296zm0.23047 0.35742m0.92383 0.1543m-20.01 0.14065-0.7207 1.1504zm2072.2 0.16992m-1734.7 0.25196m1678.8 0.17968m-1997.2 0.10352m2010.8 0.37109 1.4414 1.2246zm24.887 0.36719m1.2187 3.2227m-32.301-3.123m28.326 0.41797m-5.0605 0.0586m10.902 0.42578m1.7578 0.0645m-37.15 0.22656 1.4414 0.43359zm-2005.3 0.86328-1.3535 2.3106zm472.04 0.7207-31.092 28.957 18.994 5.9648 13.443 5.3809 2.3867-11.6-1.6504-8.9746-8.7676-3.5156zm1537.9 0.0703m-2004.8 3.8672m-11.012 2.4473 5.0234 9.8203 11.16 5.9062zm8.9727 0.0976-1.5117 0.64649zm2.4492 0.2168-3.2402 1.4414zm466.71 0.28125-0.78906 0.64649zm-469.08 0.14649-0.79101 0.0703v0.36333zm-3.4941 0.86718m4.2129 0.57617-2.2324 0.57618zm5.6094 1.3692m1.5898 1.1504-0.5039 1.4394zm1.2207 0-0.86328 0.64843zm-3.6641 2e-3 -1.2969 2.4473zm1.293 0.78711-0.79101 1.2969zm401.04 2.3106m-414.94 0.34961-1.7031 2.207zm13.541 0.7207 1.7285 2.5195zm4.0293 0.2207-1.5137 1.0078zm464.31 0.26367m-3 0.88477-2.5195 0.5039zm-467.65 0.36133 0.0703 0.79101zm2.6699 0.65039 0.72071 0.21484zm6.4356 0.01m187.49 0.72266m0.28906 0.0996 0.0684 0.0312zm-0.86523 0.0762m-187.16 0.0312-0.7207 0.57617zm-18.791 0.0703-0.93554 1.0078zm0.79102 1.3691-0.0703 0.72071zm206.98 0.30274m43.465 1.625 28.5 23.92 3.3262 10.584-22.762-7.4043-32.836 26.857 38.369-30.412-50.977-4.7461zm-236.69 0.082 1.1523 0.86523zm-0.29102 0.50977-0.5039 1.8008zm237.75 0.56835m-45.119 0.0137-0.0234 0.63867zm46.424 0.17773m-46.291 0.75781 0.53126 0.28125zm-188.08 0.13282 0.0703 0.7207zm-1.4394 0.2207-1.3672 0.9375zm197.63 0.59375-1.4785 0.54297zm-4.0879 0.0742 0.1836 0.14062zm-195.56 0.1914-0.43164 1.2969zm1.291 0.42969-0.50586 0.79297zm194.71 0.14258 0.94921 0.0586zm7.7754 0.0664m-0.13282 0.34375m145.54 0.25585m-347.16 0.5625m203.67 0.44532m-1.4688 0.23828 0.30469 0.52148zm-202 0.55469m204.95 0.0898m7.2969 0.0312m250.01 0.36914-2.3711 0.2168zm-234.99 0.1582m-21.053 0.72657 0.0176 0.01zm182.11 0.55664-0.42969 0.79101zm-0.28906 0.78906-1.2207 1.3691zm-143.73 1.002m-247.74 0.79883-0.43164 0.7207zm411.42 0.58008m48.961 0-1.7285 2.0879zm-461.09 1.0098m232.84 0.31055m126.13 0.11524m-3.9102 2.957m37.699 0.57031m22.83 0.44922-4.6289 8.1562zm-160.78 5.9434m1.3594 1.6035-1.5117 1.2969zm1.5098 1.0098-1.4395 0.86523zm1.2676 0.12109m86.789 0.83008-0.0762 0.0996zm-104.04 0.92188m121.31 0.40039m-19.816 0.71093-0.36524 0.31836zm65.311 0.57032m-44.002 0.0312-0.0801 0.29296zm-23.41 1.3828m-111.27 0.93164m83.141 2.3652m-3.8047 1.3379-63.99 28.975 34.029-20.334 26.006-6.6543zm57.605 0.47657-0.92968 1.1523zm-11.639 3.0508m-4.1914 0.61914-0.50977 0.7207zm18.209 0.0703-0.78906 0.64844zm-16.92 0.7207-0.85938 0.86329zm1.3711 0.72071-0.79101 0.28711zm58.459 2.0156m-162.79 10.967m76.686 8.9062-1.0801 1.5117zm4.0996 1.4394-2.1504 1.0098zm3.3906 0.57617m-16.199 2.0176m-38.092 46.582-2.7344 4.5352 1.1543-0.0703v-2e-3zm-325.15 14.475 2.2305 0.14649zm-1.3711 0.28711-1.4394 0.35938 1.3672 0.5039h2e-3zm6.8398 9.1426m27.082 2.3672-1.5312 1.8301zm-25.432 3.2441 1.6562 1.2949zm81.072 4.8223m-24.385 3.7656m206.69 3.5117-0.79297 1.5117zm-174.45 1.5742m115.27 5.5566-0.71875 0.43164zm-113.77 1.7226m141.42 0.50391 0.0703 1.5117zm-120.19 0.63086m124.87 0.45508-2.9512 0.9375zm-52.896 0.96679m-159.44 0.64258 1.5176 4.6016zm137.6 1.8477m-45.053 0.26367m-83.9 0.54688m-44.426 0.43164-0.35937 2.2305zm129.14 0.59375m146.19 4.7832-0.28906 2.8809 0.0703-0.7207h2e-3zm-145.09 1.0879m-109.87 0.5918-0.71875 3.0234zm138.61 0.0469m-6.2676 4.9746m-18.855 1.7559m160.09 5.709m-33.445 1.1738-0.14453 0.72071zm32.18 0.21094m-157.86 0.34375m129.14 0.22461m-0.16016 0.13477-0.30468 0.25586zm-2.7988 0.16406 0.21679 1.5117zm2.332 0.2539-0.48633 0.48829zm-2.6953 1.1094 0.71876 0.57422zm-215.21 3.8418-1.3691 1.9434zm98.281 0.11523m1.5527 0.92773m154.12 3.6856m-11.375 2.8086m-242 0.74414 0.43164 2.1582zm17.855 0.21484m229.9 0.14258m-228.68 0.21679 0.35938 1.4414zm241.06 3.2891m-270.54 1.0976m14.932 2.0938 0.57617 1.5117zm240.2 0.0488m-1.9609 0.71094m10.902 0.17187m14.963 0.84571m-3.498 3.2891m-3.5566 0.38281m-44.352 4.1055-0.45704 0.20508zm-0.45704 0.20508-4.8476 4.5371 27.051 24.348 4.8965-15.48zm7.1524 1.377m44.062 1.5117 1.4394 1.5859zm2.7246 1.3848m-33.918 1.1914m1.6562 0.91602m37.818 0.0352 2.4473 1.2969zm-36.506 1.1562 0.79297 1.7285zm-609.3 0.53711m610.48 1.3281m-615.47 0.57812-1.4414 2.0156zm577.33 0.74024m-178.46 2.0938 0.93555 1.0078zm-384.07 0.14062m635.96 1.252m-0.24414 1.752m-630.52 1.0527m3.5176 1.6113m-3.0098 0.83789m588.39 2.834 0.79297 0.7207zm-62.285 0.0234-2.377 2.8808zm-518.35 3.0684m622.64 1.5176m-1.8809 1.0977 7.5527 15.793 17.596-8.5938zm9.2754 2.957m-0.18946 2.957m-0.21874 1.502m36.4 0.33594 4.089 1.6168zm-47.77 0.71094m10.91 0.6543m-41.736 0.24609 1.0198 0.0873-0.59538-0.0723zm-107.81 0.71094m-32.82 1.0918-0.66407 0.93555zm180.35 0.32618m1.1777 2.3223 0.0469 1.7051zm22.824 1.4629m-37.312 0.67774m-116.07 1.1582m-14.576 1.3477m23.23 2.3476-0.71875 1.2246zm-23.877 0.41602m-3.791 1.9668m17.137 1.9707-1.7754 9.8086zm-11.055 4.6758m32.076 0.45898-2.8086 1.3672zm-41.77 3.0117m-2.1777 4.0664-0.76758 1.4824zm-1.5938 3.1992m64.168 2.9824m-43.543 3.4356m-2.791 2.7383m6.3789 0.24414 2.0391 2.4922-6e-3 2e-3zm20.223 1.2832-1.0684 0.8457zm-15.279 0.3418m-14.662 0.31445-0.10742 0.11133zm16.289 0.28711m-16.555 0.01-0.17969 0.28906zm16.955 0.0312 0.82031 0.79492zm-1.2676 0.21679m16.633 8e-3m-32.525 0.0898-0.0723 0.34766zm-0.0742 0.52539 0.0508 0.41602zm28.574 0.0254m-3.248 3.877m-1.8066 1.8789m-0.31055 0.76758-0.0312 0.0254zm7.7617 8.1426m1.5488 7.9258 0.24805 0.0879zm-0.76367 0.14453-0.0957 0.16797zm4.2363 1.3281 0.53906 0.18555zm5.8594 0.81641m0.49805 0.69531 0.20703 0.20508z"
        fill="#ffffff" fill-rule="evenodd" stroke="#fff" stroke-width="0.5"></path>
    <path
        d="m2443.6 710.5m-20.41 4.9277m6.6055 2.75-0.3711 0.7207zm18.25 1.0938m-70.26 1.8008 8.8594 49.654 24.881-3.375 36.91 19.803-23.4-37.01zm75.4 0.13672m0.1739 2.6543m12.715 1.1543 0.4297 1.5098zm-3.2402 9.6504-24.91 17.07zm-47.728 3.0996-0.4317 2.0098zm26.998 1.1074m38.451 3.2129v3.6699zm-57.6 1.4902 0.3496 2.1797zm58.029 2.0391m-52.129 0.57031 0.789 3.0312zm65.09 9.5801m-3.2402 1.8008v1.4395zm-2.4981 1.6758m13.412 3.2344m1.1758 0.0488v0.73047zm4.8672 1.0234m0.752 0.13672m-14.19 0.42969m13.559 0.0664m-110.54 1.375 0.7207 0.71875zm100.41 0.99023 0.3203 2.5391zm-4.2188 0.8086 0.2891 2.2305zm7.3418 0.20117m-105.13 0.66406m128.92 2.2754m-130.13 0.39062 0.7891 0.71876zm-0.666 0.24219m58.125 0.25586-0.3633 1.3418zm-0.3633 1.3418m-0.08 0.52148 0.2226 1.7383zm47.963-1.8613-0.1504 2.7402zm-107.78 0.35938 2.9492 2.3809zm112.48 0.56055m-3.293 1.7812m-37.426 2.0762m56.93 0.25586m-8.1992 0.15429m9.4004 0.85743m-77.076 0.77929m72.029 0.54102m-70.203 0.85937m82.799 0.34571m-81.139 2.9492m-345.96 2.0899m280.58 0.85938-0.5 0.87109zm0.789 0.4414-0.2793 1.0801zm144.95 0.77734m-80.26 2.8125 0.041 0.86915zm0.8926 0.3711m-66.871 0.0684-0.2207 1.4394zm78.699 0.21094m102.46 0.32421m-178.84 0.46875-28.592 59.791-19-40.428-12.381-8.6367-26.789 1.3711-14.971 26.637-20.31-10.799-15.119 10.582-12.23 10.869-38.619 30.777-48.602 42.521-1.6993 23.08 5.0997 64.861 65.861-21.871 64.529 8.5703 24.699-3.7402-0.7402 22.461 26.361 21.35 43.57-6.8203 63.42-99.449-18.451-33.418-19.119-43.852-16.26-52.561zm-46.422 10.291 0.2695-0.20703zm-29.49-7.8457v2.9609zm31.76 0.28906-2.2402 3.6016zm124.56 1.4922m-172.58 0.28906m-0.9004 0.66992m181.2 0.14844m-433.53 0.33199m426.58 0.041m51.424 1.1309m-179.63 8e-3 -2.0195 1.5098zm230.84 0.65429m-253.85 0.13868m-6.8008 0.28711 0.2891 0.71093zm28.369 2.9512-0.8692 0.92968zm388.58 7.8379 4.1802 1.6959zm-154.08 7.1309-0.4297 2.0898zm-0.1524 3.8613m-8.2793 4.7461m11.242 2.2734-0.4297 3.7402zm-1.3711 2.7285m0.9414 1.7305-6.5354 13.799zm-7.6113 1.3008m-0.09 1.0664m74.941-0.85547m21.1 4.4688m-22.32 7.9902-0.7207 0.65039zm5.9472 2.3574m-73.793 1.4297m77.951 1.0098m2.9239 2.543 0.4297 1.5098zm-249.22 2.5195 0.1 2.2305zm253.09 2.7832m-81.76 0.58594m68.857 2.7852m-138.34 1.916-0.5801 1.5098zm70.049 1.291v2.9492zm-41.83 6.6973 15.581 11.563zm43.643 0.52539m-156.46 0.0449-0.2911 1.5215zm131.69 2.5918-1.3008 2.2402zm3.3848 2.1152m4.5957 5.748m-6.0899 10.381m-4.4607 35.185m5.4004 67.211-0.08 22.459-24.141 36.619 42.109-30.828-12.709-21.08-5.1797-7.17zm-261.77 10.752m270.74 3.4668-0.6386 2.4199zm-5.1093 5.9805-1.2891 0.5zm-235.63 24.604m26.982 1.3164m-0.5957 4.8887m-0.8438 1.5214-0.8691 0.8594zm172.72 0.059-74.26 43.641 25.629 1.6601 55.52-41.189zm-78.576 46.938m-119.56-45.618 8.3301 18.801-1.4199-15.051-3.3809-2.8086zm205.06 0.2012-2.0214 1.7988zm45.885 26.119m-0.6758 4.2597-0.789 0.7207zm-122.64 10.055-0.066 0.1426zm-0.07 0.1484-0.3691 0.4571zm-3.5957 10.568m-37.525 32.619m-617.19 10.91m540 17-0.6406 2.4199z"
        fill="#ffffff" fill-rule="evenodd" stroke="#fff" stroke-width="0.2"></path>
    <g>
        <title>Kiribati</title>
        <g class="landxx coastxx ki">
            <path d="m98.955 683.84c1.0721-5.9705-5.6697-0.96243 0 0z"></path>
            <path d="m2630.3 681.38c-0.24-0.16667-0.24-0.16667 0 0z"></path>
        </g>
        <path d="m2633.5 682.23c-14.09 23.097-15.897-22.376 0 0z" opacity="0" stroke-width="0.5"></path>
    </g>
    <path
        d="m1751.7 222.63-46.07 14.613 3.1289 24.393-38.4-1.1074-46.568 7.1562 19.66 28.725 18.94 17.641 14.33 28.287 2.0488 2.0664 11.686 30.889-29.365-24.602-35.82-19.16-40.94-7.8652 11.02 6.0879-46.209 5.9297-52.59 13.188 1.3887 23.748 23.861 11.598 42.699 4.166-1.2787 10.645-9.0319 29.294 28.102 60.127 31.818 51.576 28.311 47.975 60.15-33.814 42.939-52.387-40.289-13.344-18.157-11.33-5.8369-4.6499-17.227-14.04-8.7891-20.334 28.52 19.244 63.76 21.785 49.609-0.63086 18.33 20.23 25.98 9.7227 8.6153 23.17 32.605 84.762 25.299-12.66 14.98-49.242 38.119-46.248 7.2773-0.50586 8.6738-1.1543 5.209-3.4258 17.451 20.559 11.56 14.34 13.199 20.225 20.051 20.533 6.627 32.928 17.482 48.674 22.68 13.891-30.714-56.041 11.925-29.552 25.623 22.002 14.226 2.8593 15.639-12.834-17.92-48.082-3.6797-36.199 18.42-2.6719 14.711-3.4052 12.023-4.779 6.1621 4.1924 7.9944-7.4378 16.51-16.801 8.8301-15.48 2.4648-13.994 5.5743-13.828-6.5489-14.705-9.7109-12.322-6.5586-36.016-27.06-9.2129 17.18-10.82 26.141 2.7617 15.756 10.867 3.6035 10.229 13.141 16.412-15.291-39.184 6.791-33.713-2.4512-44.318-60.51-17.646-53.483-14.781-40.508 21.808-82-16.557-51.59 7.4766-41.08 7.8828-52.619-15.824-49.58-20.513zm144.31 51.91m312.04 104.8-0.254-0.4961zm-308.85-100.23 0.1387 0.38672zm-9.2441 0.27344-1.0898 0.98242zm10.894 0.72461m-12.336 0.43945m198.04 0.64063m-182.07 1m1.1778 0.85937 0.5039 0.30078zm196.51 1.418m-187.16 0.80273m176.89 0.42774m-3.1054 0.4707m1.6464 0.48828-0.1777 0.0547zm-202.24 4.5781-0.031 0.16406zm-0.047 0.20508-0.25 0.44531zm34.191 0.45898 1.9395 1.6074zm-34.484 0.041m-13.568 0.20898 0.6387 0.27149zm0.9746 0.40234 0.6719 0.21485zm0.6797 0.2168m4.9473 2e-3m5.0429 0.21485-0.2461 0.10742zm-3.7656 0.0234 0.2344 0.12695zm-11.295 0.13476 0.023 0.82422zm13.428 0.78125-0.2207 0.0645zm-0.289 0.0762-0.2149 6e-3zm-67.016 0.29493 16.73 2.8223-19.65-0.60547 0.7012-1.7129zm-96.971 0.46679m395.11 0.35938 1.2344 0.46875zm-7.1289 1.4512m-237.47 0.29687m-156.95 1.9609m214.41 1.584 0.1465 0.35351zm-209.06 0.86523m0.5996 0.38867m208.48 0.0586m-216.55 0.28515m158.94 2.5215m-155.79 0.29882m563.11 0.85352 10.67 29.293 23.711-12.873zm-5.9707 0.36328 1.1504 1.0078zm-175.67 0.44727-0.9277 0.0391zm178.04 1.2812 1.5098 0.7207zm-409.88 0.0215m-3.6914 0.86524m217.45 0.59375 1.7872 0.76953zm-129.22 0.85937 1.8848 0.72852zm135.93 1.4805m-225.3 0.0391 0.164 0.0391zm-135.91 0.62695m230.75 0.2793m-93.73 0.22266 0.041 1.0176zm97.205 1.5996 1.1387 0.54492zm118.63 2.4688 3.541 2.9316zm-110.59 1.6367m2.4922 2.1211m-213.12 0.27734m110.04 0.95703 0.6348 1.3242zm-43.971 2.8066m-57.867 2.293 0.076 0.0586zm101.54 0.0899m-101.25 0.12109 0.709 0.2168zm2.3437 0.0156m61.24 0.17968m5.9707 0.20118-0.076 0.11132zm18.726 0.32812 1.1582 0.16211zm-49.65 1.377m-88.324 0.20118-0.5 0.35156zm-2.1816 0.54297m-0.1231 0.2832 1.5293 1.4531zm287.18 0.14062-0.1192 0.0195zm-0.5547 0.0586m15.758 0.68945m-196.65 0.36719 0.545 0.18359zm241.91 0.18554m149.61 0.01-0.018 0.0156zm-390.81 0.0117 0.1308 0.0117zm247.81 0.082-1.291 0.0254zm-202.83 0.21484 1.4921 0.92969zm343.4 0.20313m-405.62 0.0527-0.01 0.0371zm-0.035 0.19922 0.01 0.0469zm-90.436 0.17188-0.4394 0.87109zm3.9961 0.16797m6.5586 0.0293 0.8106 0.0156zm-37.391 0.16016 0.502 0.0918zm-4.1699 0.10351-2.5703 0.97461zm5.1035 0.0781 0.1855 0.0488zm117.66 0.0137m0.6036 0.16016 0.086 0.0293zm475.82 0.24023m-478.49 0.56055-0.3671 0.33008zm66.094 0.082m-369.52 0.17969 12.375 9.5938zm209.72 0.082m499.66 0.19531m-408.07 0.01m248.21 0.24609-3.7265 2.1289zm154.51 0.45313-0.916 0.16015zm-404.15 1.0488m239 0.61719 0.078 0.0371zm0.1172 0.0606 0.625 0.42969zm155.65 1.1621m-150.95 0.27539m-335.04 0.14453m-99.404 0.24414m201.73 0.27344 0.3535 0.50586zm0 0 0.248 1.5059zm484.89 0.67383-5.4897 40.499-24.278 10.718-12.959 23.357 12.52-1.1504 16.971-14.516 26.309-3.2051 2.3782-28.374zm-493.61 0.17187 0.5 0.2168zm-174.8 0.25977m148.61 0.0195m82.9 0.0469m-127.41 0.78906 0.1465 0.0645zm-21.772 0.0469m-97.418 0.0918m87.508 0.0449 0.8926 0.0586zm1.0411 0.0644 0.3339 6e-3zm5.0507 0.12695m3.4493 0.0762-0.1192 0.0254zm-84.834 0.0859m-3.0918 0.34571m15.574 0.1289m-3.8516 0.0996m-19.174 0.16407m0.125 0.0684m4.4297-0.0605m7.9668 0.15234 0.068 0.36914zm189 0.15821 0.5332 1.1973zm378.58 4e-3m-568.2 0.1836m177.91 0.7207m46.041 0.0273m-0.418 0.0566-0.1367 0.0332zm-30.436 0.78321 0.1641 0.0996zm0.5195 0.27734 0.1407 0.0566zm372.05 0.50586m-368.71 0.24023-0.01 0.0684zm-0.035 0.18946-0.031 0.0371zm-25.588 0.13086m8.7636 0.0527m385.42 0.0527-0.7032 0.62891zm-574.68 0.4961m189.7 0.22851-0.016 0.11524zm-0.033 0.19532m-9.9921 0.35937v0.0586zm393.03 0.0391m-370.87 0.10938m-22.108 0.16016 0.1172 0.42187zm22.774 0.0976 0.6894 0.16016zm369.34 0.58789m-352.79 0.0195m-39.08 0.0391 0.057 0.11523zm8.4395 0.92187 0.1308 0.082zm36.836 0.0644 0.029 0.0391zm-25.092 8e-3 -0.7285 0.29492v-2e-3zm369.96 0.17968-0.9707 1.3262zm-344.69 0.0391m-6.2246 0.18945m-0.4688 0.0898-0.9218 0.67578zm-23.301 0.2461m-320.29 0.12695m320.58 0.041 0.2871 0.21289zm4.1778 0.21289m-183.42 0.0723m115.57 0.14063 0.061 0.11523zm-115.4 0.11328m181.37 0.19531m-14.527 0.32227-0.043 0.0332zm-0.3125 0.30273m-5.67 0.29297m-44.6 0.38672 0.2051 0.2832zm-118.62 0.3125m118.88 0.041 0.209 0.23047zm44.732 0.16993m3.9687 0.14453m7.7832 0.12695m-11.832 0.17969-0.035 0.0625zm-44.037 0.0156 0.2832 0.25782zm43.908 0.1543m-43.596 0.12695 0.8457 0.62891zm42.967 0.2461-0.045 0.0879zm-169.94 0.78906m169.92 0.01 0.043 0.32813zm-166.01 0.34375 0.086 0.0215zm0.2032 0.0703 0.2421 0.17382zm0.498 0.74414 0.022 0.30273zm176.83 0.10351m-168.68 0.14844m-7.8184 0.0898m170.11 0.16407m9.3711 0.39843m-157.81 0.33204m-12.793 0.0801-0.1836 0.20704zm178.05 0.11328m12.879 0.0488-0.1 0.0352zm1.1406 0.0234m-20.916 0.0273m358.21 0.11915m-381.04 0.11132-0.016 0.0762zm-152.17 0.91407 0.127 0.0898zm183.62 0.0645 0.3301 0.0215zm-31.752 0.15625m389.99 0.0879m-345.61 0.0293 0.022 0.11328zm-191.01 0.40039m181.33 0.32617m-198.81 0.0547m210.55 1.873m-196.31 6e-3 0.3184 0.61524zm14.592 0.0801-0.4981 0.19727zm-0.8731 0.69922 0.3887 0.73047zm-26.703 0.30469m147.64 2.2441m69.854 0.91992m379.08 0.83398-0.022 0.0312zm-594.75 0.38868m668.3 0.48437m-582.39 0.37109-0.7813 0.18946zm-0.8027 0.19922-0.084 0.0527zm71.57 1.3281m60.16 0.14062m-32.986 1.1289-0.025 0.0859zm-25.478 0.55078-0.057 0.23438zm426.05 0.38086 1.2305 1.4394zm-583.09 0.28516 0.3633 0.8457zm0.4278 1.1738m102.49 0.0137m79.891 0.79687-0.053 6e-3zm-30.414 0.11328m25.438 0.47852-0.025 0.6289zm-189.13 0.76562m229.75 0.0703-0.4336 0.99609zm-9.5156 0.0957 0.025 0.0762zm0.022 0.16797m-206.76 0.13281m-18.119 0.10547m177.71 0.14648m53.781 0.48242m1.8789 0.0527m-44.58 2e-3m-65.272 0.0703 0.039 0.041zm56.148 0.21876-0.3907 0.0234zm14.357 0.20703-0.014 0.0742zm-11.412 0.1289m47.768 0 0.1367 0.45313zm-43.34 0.27344-0.2558 0.12891zm-0.3008 0.16016-0.1718 0.13281zm44.691 0.65625m-45.219 0.22265m-0.334 0.0605m47.373 0.0586m2.6347 0.16993m-235.05 0.10351-0.5488 0.65625zm-28.553 0.41602m253.72 0.11132m-6.5391 0.51368m-199.1 0.91211m220.02 0.28906m-219.55 0.42383 0.029 0.22461zm115.41 0.28711 0.1582 0.22851zm0.2012 0.29882 0.039 0.0859zm466.52 0.625 1.0098 1.0801zm-582 0.16797m190.99 0.61133m441.63 0.95117 0.1 1.2969zm-516.46 0.082m515.74 1.6484-0.2891 0.79102zm-629.08 0.76758m113.53 0.01-0.092 0.45118zm0.068 0.6211m-195.53 0.3789-13.34 14.025zm306.19 0.11524m-221.73 0.22461m125.21 0.11133m59.643 0.0957m-73.135 0.0391m-106.93 0.21875m-35.529 0.97461-0.1758 1.0156zm144.16 1.0742m113.42 0.66406 2.3945 0.28516zm-109.94 0.64258m1.7734 0.30469m68.553 1.2793 0.084 0.0684zm-183.14 0.0293m0.1367 0.30274m107.54 0.55664m115.23 0.28711m-224.51 0.61328-0.072 0.48828zm596.49 0.54883m-630.35 0.32031 0.023 1.6387zm266.35 0.22461 0.9804 1.6074zm358.39 0.0351 2.0098 1.584zm-11.02 0.0703 0.4297 0.79101zm94.75 1.0801 0.6484 0.71876zm-452.46 0.20313m-15.447 0.16797 1.4375 0.33594zm-24.084 4e-3m-183.77 0.32227m604.41 0.0918 0.5801 3.0234zm-672.72 0.46093-0.1484 0.0293zm1.086 0.0547v0.0137zm66.049 0.20508m184.56 0.2793m-0.4043 0.0645-0.2872 0.18555zm398.46 0.0195m63.359 0.2168-0.9903 2.8027zm-4.8477 0.084m-54.5 1.3613m53.129 0.13086 0.4785 4e-3zm-434.16 0.58398m399.8 0.0566m27.016 0m-3.502 0.22265 0.211 0.7207zm0.7207 0.80078 0.4297 0.71875zm-520.75 0.57618m76.121 0.24804-0.7031 0.53711zm-7.2129 0.4043m30.709 0.10547 0.1524 0.0996zm-31.469 0.68164 0.016 0.0684zm31.461 0.0723-0.7227 0.66797zm420.84 0.0508m-18.642 0.81054m-403.56 1.2012 0.031 0.0684zm-96.236 0.99805 0.1797 0.0469zm479.49 0.25m-381.66 0.86524-0.2969 0.99414zm35.064 0.60546m366.39 0.25196m-657.56 0.0449m-23.537 0.67969m0.6817 0.1289m249.95 0.5m-250.9 0.26563-0.035 0.082zm679.34 0.39844m-430.97 0.0215m33.887 1.5371m37.447 0.92187 0.2696 0.47071zm-36.84 0.24414 0.6191 0.14844zm394.32 0.0879m-357.16 0.26562 0.049 0.24414zm-72.928 0.25586-0.021 0.21484zm-0.045 0.35547m73.002 0.0898-0.022 0.10156zm-0.096 0.24219m-6.1953 0.21289m-0.2031 0.0469m377.23 0.76758m-2.5118 0.22657m-662.33 0.21679 0.1601 0.80664zm261.95 0.30078 0.6524 0.14258zm0.9512 0.21875 1.584 0.78711zm28.711 0.10352-0.3496 0.23828zm-291.4 0.24219m1.1973 0.50586m599.21 4.207m-385 0.0723m0.5644 0.16993 0.4199 0.15039zm-2.4551 0.0703m448.73 0.35742-0.3594 0.7207zm-668.97 0.24609-0.5449 0.18946zm266.03 0.0137 0.3789 0.89648zm-47.086 0.0879-0.1543 0.18554zm-220.15 0.3164-1.5723 0.48828zm-1.9493 0.59961-0.7773 0.20899zm220.63 0.2832m-48.998 0.88868 0.2598 0.0723zm0.3691 0.0976 0.8321 0.14258zm98.285 0.56836m-49.621 0.41406m-5.9394 0.31836m-0.1602 0.0117m90.152 0.42774 0.5508 0.73828zm-89.01 0.01 0.582 0.25586zm-2.0547 0.19922m2.6445 0.0586m54.455 0.95704 0.1621 0.0879zm0.2402 0.11914m0.2383 0.45312-0.051 0.0664zm-0.2734 0.31836-0.2305 0.21094zm-58.924 0.25586m472.48 1.3457 0.5 3.6719zm-416.79 1.6992-0.877 1.3867zm-263.49 1.0781m677.34 0.5332 0.5293 1.8379zm-680.36 0.63281m-0.1386 0.23828-0.062 0.13868zm325.21 0.0977m294.38 0.0449m-301.38 1.082m301.32 0.68164m-619.75 0.38086m72.514 0.0371m190.93 0.98242-0.6348 1.1699zm-92.346 0.88086 3.4453 1.0957-3.4414-1.0918zm39.346 0.19141-2.5918 1.002zm410.63 0.8125m-572.8 0.89844 1.1895 0.97461zm156.4 0.0488-1.8867 0.55859zm57.768 0.58203m-64.525 0.01-0.207 0.0566zm-0.4688 0.16407m-7.1718 0.36132m1.4258 0.11328 2.1093 0.49219zm146.17 1.6621 0.832 0.75977zm3.9121 0.29297 0.7578 0.37305zm-289.15 0.10547 0.2793 0.10938zm374.49 0.0547m-373.87 0.16211 0.9375 0.19922zm364.91 0.59765-1.7481 1.957zm4.7637 0.14063m-356.18 0.38867m359.71 0.24805-0.059 0.0566zm7.6933 0.0156-0.8164 0.4668zm-7.8906 0.13086-0.041 0.0195zm-82.469 8e-3m-83.893 0.52343-1.127 0.79883zm-2.3965 1.8652m-0.1231 0.17187-0.7128 1.9668zm89.561 0.48828 0.7773 0.39844zm-29.703 0.16602m34.072 0.61328m91.568 0.55664m236.95 0.26758m-328.41 0.54492-0.051 0.38672zm57.73 1.623-1.0547 0.98828zm267.8 0.64258 0.7188 0.57422zm-229.33 0.0879 0.2559 0.34375zm170.5 0.0449m-363.32 0.13867-0.2051 0.40039zm135.8 0.58008m-27.652 0.24023-0.2325 0.4043zm85.324 0.49414m-48.305 0.39453 0.5762 0.59571zm275.69 0.53907 1.0098 1.5117zm-423.19 0.13281m127.49 0.23242-0.018 0.5zm25.525 0.39453m-163.98 0.22852m6.7851 0.21289-0.7031 0.29102zm152.46 0.16602m50.115 0.45117m-50.068 0.39062 0.2578 0.89844zm52.066 1.3008 0.1191 0.16797zm-110.89 0.30274m60.135 0.0586 0.1523 0.0254zm272.76 0.0937m-221.64 0.082m-362.88 0.71289m259.56 0.95117m90.525 0.39844 0.7696 0.67383zm-36.002 0.66016m36.982 0.11523 0.031 0.0137zm-302.03 0.94532m98.539 0.55468m137.96 0.36914 0.248 0.4668zm29.125 0.17188-0.053 0.0215zm-11.398 0.20898 0.6934 0.26953zm7.7832 0.10352 0.1231 0.0391zm-283.26 0.01m258.02 0.0312 0.1231 0.33985zm297.47 0.01m-315 0.82617 0.4961 0.70508zm19.652 1.1289m-9.6406 0.20508m-244.81 0.30468m119.34 0.25m132.94 0.36329-0.037 0.0566zm-0.068 0.0976-0.5234 0.35156zm6.5723 0.43164m280.35 0.21289 0.5098 0.72071zm-478.08 0.17969m203.07 1.6992m66.6 0.49609m153.19 0.28516 1.5098 0.64844zm-152.39 0.75781 0.059 0.0801zm0.2578 0.37891 0.1777 0.30664zm-0.7363 0.91992m-0.1055 0.0156-0.078 0.0274zm1.0566 0.0117-0.062 0.0449zm-0.6972 0.0117 0.2656 0.043zm-0.4727 0.0293-0.1934 0.18555zm1.1035 4e-3 -0.1367 0.0234zm157.31 1.9043m-160.75 0.14649m-203.78 1.6719m377.7 0.98633 2.6738 9.7344zm-175.88 0.29297m-69.291 0.86719-0.1757 0.52148zm-241.64 1.668m239.69 0.0645m30.35 0.63672m245.78 0.0742 1.2988 1.0078zm-403.72 0.25977m126.88 1.248m-126.76 0.43554m-0.1211 0.14454-0.065 0.0937zm197.86 0.26757 0.3184 0.78125zm152.96 0.52344 0.6484 0.86524zm2.0996 0.0664m43.84 0.0742m-198.42 0.33203 0.088 0.0996zm-197.97 0.0605m392.99 0.61719m-398.77 0.5293-0.4179 0.14062zm204.62 0.0156 0.1562 0.3711zm-215.64 0.1875m148.11 4e-3m-144.57 0.24609m12.188 0.10547-0.027 0.0117zm-111.81 0.0488 0.084 0.20117zm-14.799 0.35938m281.66 0.23242m1.3535 0.0312m-267.49 0.23047 0.5352 0.32617zm320.03 0.11523m-8.6738 0.28516m-47.156 0.20117m-19.588 0.40039 0.02 0.60937zm-247.71 1.1133m322.26 0.5957m0.1816 0.41993 0.7481 0.83984zm139.33 0.48242m-189.83 0.72851m51.693 0.33203-0.1016 0.61914zm-0.1371 0.91393m-74.854 0.41406m22.975 0.75391-0.045 0.15234zm-271.73 0.0195m372.28 0.0977m-111.15 0.0644 1.291 0.57617-0.6504-0.5039v-2e-3zm10.541 0.082m52.959 0.25195 0.9531 1.6367zm-56.18 0.6836m100.95 1.0195m-40.225 0.95508 0.5351 0.93359zm-66.324 0.53906 0.58 0.43164zm66.875 0.43359m103.7 0.0684 1.5898 1.2227zm-51.326 0.01m-0.209 0.0215-0.4258 0.0977zm-52.994 0.23242-0.014 0.0195zm-65.953 0.0488m104.75 0.7793m-3.3242 0.0527-1.1094 2.2695zm-35.721 0.0332-0.01 0.125zm-329.9 2e-3m264.76 0.01m171 0.25 0.5801 0.7207zm-105.85 0.18945 0.1094 0.98633zm-331.18 0.66992m272.09 0.29688 0.9297 2.2324zm90.402 0.0645m22.969 0.0723m49.09 0.14454m-165.05 0.50585 0.1407 3.7442zm80.02 0.16016m-0.9024 0.52734-0.057 0.11329zm-82.217 0.17774 0.1504 0.93555zm86.024 0.13867m-86.244 2.2383m64.541 0.0781 0.018 0.0488zm-48.594 0.0195v0.0898zm48.639 0.0879 0.096 0.11914zm23.744 0.0469m-23.602 0.11329 0.051 0.0293zm17.865 0.3457 0.1543 0.37305zm38.404 0.71094m-110.99 0.53906-0.1015 1.5137zm82.049 0.65039m-12.721 0.58984m-8.4161 0.0996 0.7422 0.6836zm-60.844 0.25 0.5098 2.2305zm74.234 0.14844m81.367 0.0625-0.8008 0.86328zm-93.424 0.30273m88.094 0.0566-0.6504 0.9375zm-33.352 0.0742m2.5176 0.0527m-0.8262 0.12695-0.9863 0.3457zm-49.012 0.22656m-5.5117 0.88868m5.3574 0.34375-0.2207 0.24609zm13.764 0.43945m37.832 0.1543-0.7207 0.14453zm-52.469 0.13281-0.6036 0.32812zm48.869 0.9414-0.3613 1.9434zm23.039 0.65235 0.3593 0.7207zm-73.723 0.0996m17.434 1.0508m55.795 0.0508m-21.535 0.23633-0.8711 1.1504zm-25.195 0.77539 1.0195 0.48828zm19.504 0.16406 0.4316 0.7207zm-46.01 0.28711m-0.1484 0.0606-0.1504 0.0586zm27.787 0.0566 0.1894 0.14062zm20.002 0.34375m-26.264 0.27539 0.07 0.0215zm-23.203 0.0645m30.555 0.10547m-6.6836 0.10938m-334.88 0.7832m473.83 1.8027-0.4297 1.1524zm-219.31 0.28125 0.5 0.79297zm89.193 0.74414m-38.723 0.3418m4.8731 0.25195m35.195 0.57422m-372.99 0.87305m417.11 0.10156 1.7071 4.2441zm-86.801 0.12305-0.076 0.0371zm-46.572 0.0918m90.74 0.21875m-86.77 0.92968 0.8594 1.5137zm85.574 0.57813m-5.1113 1.6152m-27.522 0.31641 0.068 0.11133zm-50.213 0.94726 2.0215 1.584zm51.209 0.15821m26.93 0.67773-0.035 0.0625zm-0.1172 0.15039-0.5156 0.33594zm130.37 0.51367m-131.33 0.13868 0.2187 0.74804zm1.9941 1.5625m133.86 1.6211-0.5098 1.5117zm-212.84 0.94141m208.68 0.10937m-125.52 0.31641m1.5156 0.54492 0.418 0.10547zm-27.211 0.79687v0.0352zm29.805 0.43946m117.5 0.18554 4.4609 41.525 25.609 9.6504-16.889-30.748zm-176.43 0.20508m3.0078 0.0937m25.264 0.91602v0.0273zm0 0.0293 0.045 0.23046zm17.094 0.54101m-0.1133 0.0176m-0.4902 0.84765m-42.23 0.14063m57.535 0.11328 0.707 0.57227zm-31.1 0.57227m32.467 0.25976m-27.553 0.99219m-30.43 0.41016m36.902 0.99804 0.4121 0.16797zm-36.44 1.2949m27.035 1.3144-0.4414 0.44531zm-365.98 2.5644m-45.022 0.3457 1.334 1.8535zm449.96 1.0215m-445.74 0.5918-1.084 0.5957zm-41.152 0.60742m426.97 0.0664m-427.78 1.3047m10.615 1.4492-0.1074 0.1582zm410.6 1.5v1.7285zm69.215 0.30859m-59.014 0.0527m60.543 0.11523m1.5977 1.2305m-93.801 0.52344-1.2305 2.9512zm32.059 0.24219m63.793 0.92968m-65.576 0.39454m-28.615 1.2422v0.72071zm94.098 0.39258m-14.223 0.30469 0.1074 0.10547zm0.2539 0.20898 0.4394 0.28711zm13.896 1.2168 0.1914 0.17187zm0.2734 0.23633m1.7773 1.2363m-14.137 1.5137m-55.268 0.52539m71.195 0.48437m108.03 1.4648m-108.74 1.334m111.14 0.80859m-110.83 0.58594m112.04 0.4043m-119.78 0.97266m-0.8418 0.80664m8.2168 0.0898m-19.766 0.39258 0.1328 0.0273zm0.1543 0.0332m-7.8985 0.26758 0.4492 0.14453zm17.121 0.0547m-6.5508 0.42968m-1.4375 0.42383 0.1778 0.12696zm127.91 0.71485 2.1602 1.7285zm-110.1 0.11523m127.3 1.1856m-126.87 0.0586m-489.54 0.17969-0.1 1.0078zm477.66 0.26953 0.5175 0.36914zm108.08 1.2891 1.5898 1.5137zm-132.36 1.6016-0.096 0.0938zm-0.8243 0.60547-1.0488 0.24024zm-71.744 0.16797m209.48 0.35742m9.8926 0.0117m15.922 2.2148m-164.06 0.47265 0.1894 0.4961zm165.09 0.20899m-196.42 0.41211 0.4296 1.4375zm187.7 0.0723 3.3105 3.8164zm-229.68 1.5078m-296.66 2.2187m531.81 0.44336m-11.693 0.0215m-96.947 0.125 0.7089 0.64844zm-83.285 0.0234m181.41 0.40625 0.2207 0.7207zm7.3906 0m13.92 0.0801-0.4297 0.0703zm-1.084 0.23829 5.9844 11.275zm-200.49 0.33007-0.1 0.79102zm182.42 0.0723m-186.27 0.97656m11.268 0.3457m155.27 0.19141m-96.066 0.36328m-69.824 0.21094m68.978 0.33398m-416.47 0.16407m309.98 0.22265v0.72071zm69.77 0.28516m-29.23 0.50586m-41.539 0.7207 0.709 0.4336zm104.92 0.0527m102.43 0.16406 0.2207 1.5117zm-105.03 0.14258m118.12 0.2207m-15.029 0.0684m-154.8 0.48633m-12.172 0.375 0.5097 1.4394zm2.0898 0.28711-0.5703 2.9512zm59.408 0.19531m-58.23 0.0176m31.443 0.14844 0.3594 1.4414zm166.15 0.47656m-34.865 2.0605m-127.91 0.49414m125.57 0.13282-4.9004 14.258zm34.699 1.3711m-2.3925 0.125-0.8457 1.6113zm-136.43 1.8496m133.06 0.16797m-190.93 0.16406m52.859 0.0723m-45.928 0.082m-49.842 0.42187m81.91 1.1953m147.51 0.42187m-134.14 0.24024-0.039 0.0957zm146.78 0.084 0.1504 0.79102zm-146.82 0.0215m13.555 0.0488 0.4297 2.1602zm99.988 0.47266m-116.72 0.75195m17.947 0.0762v0.72071zm142.52 0.64454m-164.62 6e-3m-39.693 0.28125-0.4414 1.209zm192.04 0.72852-0.5703 0.7207zm2.3575 1.4141m6.4042 0.54102m-204.6 0.3418m211.32 0.5039 0.4707 2.2598zm-4.4902 1.5879-23.73 16.787 15.24 12.16 15.76-20.213zm8.5058 25.551 0.3047 0.44141zm-353.89-25.541 8.9512 11.076zm151.87 0.20117 0.6504 0.7207zm197.21 0.50781 0.3594 1.5117zm-350.21 0.36328 0.7207 0.57618zm334.66 0.56836-0.7207 0.72071zm-181.51 0.44141 0.1 1.2949zm180 2.3691-0.2207 1.8008zm-234.8 0.50586-0.5 0.79297zm243.09 0.043m-342.45 1.1816 1.4395 1.1504zm414.63 4.2676 4.5891 2.1347zm-308.64 0.55664 0.1 0.7207zm-0.4414 2.8789 0.1015 1.5137zm36.371 0.2168 0.2793 3.6719zm1.789 0.65039 0.6504 1.5117zm140.69 0.35547 0.2891 2.3047zm-179.85 0.50586-0.071 0.86437zm43.051 3.2363 0.7207 1.5117zm-40.459 1.9473-0.4317 1.4414zm222.38 0.11914-0.1875 1.0352zm-43.309 0.5918m-1.5195 0.1543-0.8594 1.0801zm-176.97 0.82226m244 0.54297 0.1485 2.3047zm-55.277 0.82813m-13.043 0.4707-20.151 18.286-22.15 29.663-8.4804 22.254 28 18.441 23.26-15.715 9.0918-35.34-1.8711-15.268-2.5898-19.658zm-52.781 42.623m92.693-40.262m-170.38 0.23437 0.291 1.4395zm4.3906 0.0879m3.3614 1.7871m-6.2422 0.20899-1.2188 0.9375zm157.9 0.79492 0.1 1.1523zm-148.02 2.5215m157.45 0.0684 1.08 0.50586zm-5.1485 0.0937m-148.61 1.3809m-48.346 0.12891m44.076 1.3125 0.5801 0.49023zm-42.344 0.76172 39.719 60.826 40.711 21.066-18.08-30.924-25.711-25.561zm36.635 1.6309m191.6 0.54296m-77.615 0.26563-0.2891 0.72266zm37.967 0.2168m-5.3067 3.7441 0.1 2.3047zm-8.039 2.0176 1.4394 0.21484zm64.203 1.4336m-78.174 0.87109m-5.1504 0.16016m5.9394 0.33789 0.041 0.0137zm-2.1289 0.0215 0.8184 0.39454zm4.8965 0.11524-0.6426 0.0508zm1.1426 0.0332m3.9511 0.62696m-72.303 1.0234m72.246 0.31446m68.666 1.1855 0.5 1.5117zm-8.5918 2.4902m-58.938 0.89257 0.7891 1.0078zm-1.3906 1.1914m-1.2109 0.89844 0.7207 0.21484zm-89.639 2.7324 0.1504 1.5117zm24.119 0.28711m-99.367 0.6582m63.797 0.34961-0.4297 0.79297zm54.371 0.93555m107.64 0.0254m24.33 1.0527m-3.1387 2.2383-0.1 0.7207zm-73.25 0.5 0.7187 1.2246zm-162.91 0.8789m235.24 0.27344 5.4004 5.3281zm-202.26 0.81445m61.307 2.0879 0.5118 0.51172zm0.5918 0.56836m0.1895 0.40039 0.1348 0.40039zm117.06 0.42383-39.172 22.201 3.6113 24.406 15.289-2.5137-10.85-17.295zm-201.89 0.11133m26.518 0.41406m82.012 0.3457m1.5938 0.37696 0.086 0.0684zm-4.3067 0.14258-0.047 0.0215zm15.522 0.25195 0.1016 0.041zm-0.5742 0.0137-0.6035 0.31836zm-35.1 0.0684m-94.502 0.0762m119.48 0.10742m11.74 0.12305m-4.1543 0.0137m-90.262 0.42969m88.668 0.59961m-1.875 0.55664 0.1074 0.0117zm-26.758 0.0703m-45.74 0.60157m3.0899 0.27343m-14.894 0.30274m6 0.1875 0.791 0.64648zm60.072 0.47656m0.1504 2e-3m-55.727 0.33008m59.969 0.0469m-10.967 0.0176 0.9141 0.54297zm-47.123 0.98438m177.16 0.29883 0.2188 0.79101zm-182.97 0.22851m6.4961 0.28125 0.2109 0.79102zm2.8008 0.21094-0.7207 0.15039zm173.96 0.21875m-184.97 0.5m185.18 2.7402v0.7207zm-174.6 1.3711 1.1602 1.5098zm-44.91 0.31641m43.91 0.11328 0.5 0.78906zm-46.59 1.3691 1.5098 3.0215zm47.301 0m189.73 0 1.6504 1.4414zm5.8301 0.0703 0.3594 0.7207zm4.6231 0.15039m-206.89 1.9883m180.21 0.11719m-220.08 0.11523m222.48 0.28907m-42.648 0.0957m-133.53 0.19531m214.2 0.0879 10.711 17.771-3.7304 8.9297 36.07 19.361 19.52 10.66-37.381-33.941zm-114.34 0.13086-0.2911 0.79102zm32.484 0.33399m67.525 0.0957-1.0097 0.86133zm-25.92 1.6602 0.5801 1.5098zm62.141 0.28124 2.7188 1.3047zm-34.641 1.0801-3.0195 0.50977zm0.4395 1.0801m-244.59 0.21875m275.11 0.2207 0.209 1.7207zm-193.16 0.27735m164.44 0.15234-0.291 0.7207zm-9.6504 1.291-0.8007 0.57812zm-52.279 0.2207m34.639 0.0684m-32.469 0.2207-0.1504 0.71875zm32.973 1.4668m57.207 0.90234m0.029 4e-3m-223.34 0.31055m22.711 0.24609m203.44 0.51849m-84.062 0.4375m44.039 0.28516m-52.646 0.0781-0.5 0.71875zm-111.52 0.0684-0.871 0.14063zm194.61 0.43164-0.5 1.5098zm-67.529 0.28907m4.0996 1.6504 0.6504 4.3984zm64.283 0.33789m-265.63 0.24023m2.7676 3.8867m59.611 0.51367m165.99 2.2012 2.7597 1.0391zm-223.46 0.0137m55.109 0.15625-0.8711 0.57031zm-5.0411 0.65039m161.35 0.14062-0.7207 1.0801zm-9.9609 1.2676m8.08 0.82226m-1.08 0.92969 0.58 0.72071zm-86.77 0.0312m1.5996 1.1992-0.2207 1.4394zm92.811 0.71875 1.0801 1.0098zm-2.0195 0.21094m0.9199 0m0.016 6e-3m43.344 3.5234 0.4296 0.7207zm-21.15 0.35351m-63.59 0.14649 0.1 2.1641zm63 0.80078 0.6504 0.71875zm15.48 0.28906 2.1601 1.7207zm-78.41 2.5898m-3.0644 1.877m-5.5762 3.9531m11.811 1.5098 0.6503 0.72265zm-162.87 0.51562m236.45 0.0645m10.424 1.1289m-82.783 0.16211 0.7187 0.65039zm68.978 0.91016m-0.7266 0.64257m-152.42 0.6875-0.5 1zm59.479 0.5-0.3594 5.8984zm26.711 0.93946 0.5 0.7207zm-136.66 0.17969 61.807 23.854-33.871-15.393zm213.7 2.1894m2.5214 1.0117 0.6192 1.709zm2.9414 0.21094-0.2128 1.3672zm-1.2128 1.2285 0.2812 0.71875zm-224.5 0.71875-0.7891 0.58008zm224.5 0.5-0.3594 1.5215zm29.881 1.1602 0.9297 1.0801zm-178.06 0.93164m-11.092 0.27344m51.912 1.3164m-48.311 0.35938 0.6504 0.78906zm109.01 0.0703-0.5 0.85937zm24.414 0.42383m-1.3731 6e-3m-130.61 0.14062h0.7188zm48.1 1.1602 1.4395 0.13867zm135.26 0.97461m-56.846 0.24414m-2.0215 0.79101 0.7207 0.0684zm-26.35 0.0684-0.4394 1.3008zm-6.959 0.85547m-134.81 0.66602 1.5097 0.71875zm158.47 1 0.6289 1.9121zm-109.66 2.5078m20.764 0.0508 3.0293 1.8652-2.1895-1.5313zm74.719 0.041 2.3008 0.27929zm-37.77 0.0234-0.459 2.8438 1.7989-1.0684zm-28.539 0.25586-0.5097 1.0801zm41.029 0m51.051 0-3.2402 1.8809zm-103.38 0.0723m61.258 0.0781-1.08 1.291zm15.34 0.14063 0.7207 0.15039zm9.4804 0.14062m-38.859 0.15625m-56.518 0.0586m59.758 4e-3m29.52 0m-15.891 0.14063-7.9492 10.939 13.791-6.2734zm-21.256 0.21875m-28.943 1.5801-0.2207 2.1699zm27.719 0.0801m-26.5 1.3613m-30.889 0.64844m31.623 5.8496m-6.5625 1.6426m40.318-0.4375m0.6133 0.51562 0.057 0.0274zm-7.3125 5.25-0.8594 1.5098zm-11.684 2.3867m10.574 0.63477m-12.852 0.71875-0.7187 0.15039z"
        fill="#ffffff" fill-rule="evenodd" stroke="#fff" stroke-width="0.5"></path>
    <g>
        <title>Saint Pierre and Miquelon</title>
        <path d="m928.62 292.3c-0.1203 6.3327-2.2795-1.1352 0-3e-3" fill="#c0c0c0" fill-rule="evenodd" stroke="#fff"
            stroke-width="0.2"></path>
        <path d="m932.52 293.3c-14.091 23.097-15.897-22.376 0 0z" opacity="0" stroke-width="0.5"></path>
    </g>
    <path
        d="m834.06 570.63 5.8804 4.808zm17.779 8.3789-12.837 2.7602 7.3435 5.6387zm-84.734 1.0938 4.589 2.1347zm12.002 1.6758 4.589 2.1347zm51.344 7.1074m-72.471 2.2285-37.963 29.562-46.076-3.2266 14.354 17.277 19.078 1.7148-10.1 48.4-9.9277 37.373-3.6215 26.042 39.848 73.03 51.912 79.844 9.9863 88.439 2.7188 59.65 15.672 26.721 3.7988 22.299-9.2575 4.5397 8.2517 6.1107 1.5098 4.3203 9 15.621 11.729 14.17 6.8711 0.543-0.39258 8.1953 1.9473 3.9902 14.111-3.459 2.0293-22.787 10.568-24.23-6.2148-38.76 9.7949-20.789 16.467-47.49 28.689-0.10156 19.24-32.543 8.9356-40.889 29.162-24.541 28.868-23.422 8.3511-69.186 27.58-39.125-49.488-43.662-27.281-6.3418-19.879-13.254-18.57 10.951 3.6055-16.068-13.539-1.0352-16.156-19.562-19.49-29.949-40.172-23.617-5.0488-12.672-0.12826-4.2425 0.38731-4.4901-47.693-1.7126-26.787 15.586zm147.96 69.395-0.19727-0.55078zm-134.33 196.76m69.018-256.74-1.8008 1.6543zm-25.131 1.3672m-10.869 1.7266m18.859 4.252 0.93946 1.5117zm-78.412 10.141 4e-3 0.0137zm-2.0703 0.11133-0.54492 0.71485zm94.533 0.90625-0.22071 0.72071zm0.78906 0.0742-0.7207 0.57617zm-92.666 0.36328m91.387 1.4082m-0.41601 1.2988m-0.8418 1.0684m1.0566 0.29688m-0.75 0.52539m-136.09 1.2949-0.64844 1.5137zm144.86 1.0039m-171.63 0.65039m76.178 0.58789-0.0254 0.50781zm-71.66 4.8184m5.1094 0.57617-1.4394 0.86328zm155.87 3.0156 8e-3 0.0645zm-87.373 1.3359 0.41797 0.32813zm0.5332 0.39063 0.0488 0.0215zm4.6289 0.041 1.3418 0.28125zm7.0332 0.34571m2.5137 0.29101m70.357 1.2441-0.16211 0.0508zm0.79297 0.26953 0.29882 0.0645zm0.41796 0.0469-0.0547 0.01zm-69.514 1.2637m16.168 2.7949m0.69727 0.23633 0.13281 0.0781zm-2.6797 0.41016-0.17578 0.043zm-3.1934 0.30664-2.1172 0.36523zm-8.2676 0.11914 0.19727 0.043zm12.637 6.5976m79.934 0.41602m-26.334 1.1973m-54.318 0.22657m54.58 0.16601 0.20312 0.33985zm25.846 1.0293-0.0527 0.0566zm-21.479 4.3633m-6.6152 0.0937-0.20703 0.1875zm-0.55273 0.34961m-28.336 1.8828m-0.1582 0.23828-0.0508 0.13868zm0.0351 0.98438 0.0156 0.0527zm19.566 0.28711 0.0371 4e-3zm32.201 1.4707 0.50196 1.2266zm-50.52 0.24219m4.6523 4e-3m2.2442 0.0176 0.74609 0.14063zm6.9687 0.0234 0.0234 0.64649zm-5.2246 0.1582-0.3379 0.0781zm42.381 0.78321 0.20703 0.39844zm-37.197 1.543-0.4707 0.37304zm22.521 1.7676-0.0879 0.5254zm19.098 0.875 0.17773 0.36719zm-80.303 4.4551m90.764 2.7031m-61.01 0.38867m2.6836 0.0957m0.39648 0.0176 0.15234 0.0156zm0.91797 0.98047-0.0312 0.12891zm98.508 0.96094m0.63086 0.65429v2.2305zm-100.84 0.42578-0.51172 0.26954zm54.264 0.99805m2.9902 0.89649 0.24218 2e-3zm-26.984 0.20898h2e-3l-0.28711 0.7168h-2e-3zm-69.994 1.0117m33.963 2.6934m-2.377 0.72461-0.48633 0.34375zm43.348 0.10547m2.2617 0.69922m-62.377 0.11132m14.893 0.043-0.2207 0.0899zm-16.572 0.23633 0.15039 0.0273zm-19.691 0.76367m-1.4531 0.32031m151.59 0.13282-0.2207 1.0684zm-126.02 1.4375m125.3 0.0195m-123.36 0.78711 0.33008 6e-3zm5.6426 1.1094m117.38 0.10743m-2.1035 0.70898-0.28125 3.459zm-197.74 1.4082m-7.8691 0.31836m-100.62 0.14253m308.61 0.2207m-200.81 0.2168m48.129 0.53711m149.19 0.51562m-312.33 1.0215m310.33 0.0371m9.0938 0.0566m-8.1797 0.57812m-187.27 0.33985m-3.2344 0.50976 1.9004 0.17383zm187.03 0.28711-1.7988 2.959zm-302.91 0.21875 1.3691 1.8008zm-5.877 0.8418m165.15 0.0937m144.65 0.19141m-186.92 0.15429m188.63 0.52149-1.4394 1.7285zm-1.2988 0.21875-0.79101 1.2891zm-300.87 0.83984m298.32 0.18359m3.2051 0.52149m24.264 0.10547v0.78916zm-318.04 0.78916-1.6562 2.3809zm294.12 0.43945-0.79102 0.92969zm-186.62 1.0312 0.0781 0.42969zm185.54 0.11914m34.17 0.45704m-211.99 0.62304 0.30469 0.24024zm197.51 0.72852-0.45117 0.71094zm-321.29 1.3848m347.91 0.1875m-187 0.48633-4e-3 0.0723zm131.56 0.74219-1.8692 1.0801zm1.332 0.54492m55.334 1.1973m8.8535 5.7383-0.64844 0.7207zm-220.08 1.6719m-56.836 0.12891 0.0703 1.4394zm-1.0801 1.6602m271.45 0.5-0.79102 2.959zm-252.12 1.1152m53.227 4.8926-0.28321 0.55664zm-59.053 0.10351m0.0645 0.0469m-14.701 1.7441 0.0274 0.0918zm0.0606 0.23828m12.77 2.041-0.14258 0.32031zm-14.266 0.70507-0.0625 0.0215zm78.754 0.73828m-79.484 0.46485 6e-3 0.084zm0.0176 0.17773 0.84961 0.82618zm74.176 0.41016-0.0449 0.0293zm6.1445 0.29297m-79.42 0.13865m78.275 0.14062m0.35156 0.41016 0.0586 0.0234zm-76.273 0.11524m75.295 0.14062m-77.994 0.8418 0.30274 0.041zm7.3945 2.3555 1.0723 1.7402zm54.807 0.42773-0.0469 0.0195zm-1.4805 1.6426m-4.2402 7.7637-0.10351 0.16016zm-0.26562 0.44141-0.47656 1.6973zm-0.45899 1.8555m0.53907 3.123m-4.5254 5.1992m-0.82421 4.8144 0.95703 1.0059zm1.4141 2.2402-0.041 0.0625zm-0.11719 0.16211m1.7715 3.6113 0.14453 0.21875zm0.20898 0.30078 0.15039 0.15234zm1.1133 1.0859m1.9043 7.6406m20.312 0.60547m-0.45313 0.87109m0.0957 0.98438m39.09 0.30664m-1.6348 1.0527 0.11133 6e-3zm-37.66 0.72071m-11.822 0.32226m52.123 2.6562m-15.43 1.3301-0.5332 0.25977zm-1.6582 1.2539-0.18164 0.32031zm16.604 0.88867 0.0273 0.1914zm-39.625 0.01m20.727 0.24219m19.939 1.8535m-35.238 0.60156-1.2383 0.54297zm-3.7539 0.46094m12.941 0.30273m25.814 0.31836-0.0566 0.13867zm-24.732 0.35352-0.70508 0.13476zm24.461 0.77148 0.68359 1.7344zm-30.553 0.13477 0.13086 0.24023zm33.219 4.8418m1.4297 2.1367 0.19727 0.043zm-29.557 1.7949m33.617 1.2832m0.35547 0.3457 0.10156 0.0801zm6.3223 1.0527m3.3398 0.92383 0.42578 0.31836zm-1.0879 0.33594-0.49219 0.0488zm1.7031 0.20117m185.05 1.541-0.791 2.1602zm-183.58 0.47265 0.23242 0.13086zm0.33789 0.17383 0.0352 0.0117zm-46.682 0.16992 0.0899 1.4062zm47.697 0.0664m3.9766 1.4766 0.27344 0.20313zm176.44 2.1602 0.016 1.3809zm-174.56 0.17187 0.73437 0.63672zm-53.121 0.14649-0.0273 0.92773zm54.805 0.72461 0.48438 0.0605zm-54.803 2.3594 0.0586 0.2207zm64.727 0.81641m0.56641 3.7188m1.4746 4.8613m-68.248 0.83398 0.0723 0.11914zm66.758 0.99219m-65.588 0.96484m-4.4805 0.59961m87.42 8.873m-0.97461 0.18164-0.44531 0.0527zm-1.0117 0.11133-1.3457 0.0527zm1.6074 1.3828-0.40235 1.293zm-80.164 1.3262m79.74 0.10352m-2e-3 0.61718 0.0547 0.49805zm0.46289 2.2383m-83.158 1.0976m-1.0508 1.0352-0.043 0.12305zm89.33 2.4023m-88.041 0.29492 0.18165 0.4375zm-2.2891 1.248m0.15821 1.959m4.3047 0.27149 1.2402 0.62891zm88.385 2.1836 0.0195 0.11133zm0.0781 0.55078 6e-3 0.26758zm-0.73437 5.9551-4e-3 0.55078zm-83.262 1.0547 0.1543 0.18164zm0.27344 0.30859 0.79687 0.77344zm1.873 1.7637 0.26368 0.33398zm0.32227 0.42578 0.16406 0.40039zm0.16797 0.4375m53.824 1.4551-0.67774 0.10156zm-54.73 1.1426m-0.0176 0.0937 0.0332 0.14258zm0.0449 0.16211 0.15039 0.20117zm80.322 0.66992m-0.92188 1.752m-79.697 0.8789 0.41601 1.207zm0.60937 2.7617m1.707 1.3398 0.0762 0.23437zm79.576 0.73046 0.12695 0.0762zm-32.523 0.14649 0.0547 0.69922zm32.82 0.0332m-0.24805 0.4961-0.0215 0.19921zm-32.623 5.4707-0.44141 3.1465zm33.561 3.1289m-62.098 0.16796m21.586 1.8047 0.9961 0.043zm-1.1973 0.0234m2.5352 0.0332m-16.621 0.99414-1.2852 0.0254zm66.889 0.18555m-45.814 1.0234m-10.893 0.16992-0.38867 1.2324zm-3.9668 0.10156 1.2832 2.1582zm63.766 0.30469m-87.561 3.0449 0.14453 0.40625zm4.6816 1.3574m22.021 0.26953m-25.691 0.0117 0.79883 0.26563zm90.17 0.74414 0.11914 0.39649zm-47.287 0.0859m133.29 1.1719m-170.87 1.6133m45.201 3.6816m118.07 0.49609m-75.584 0.86125 0.11719 0.21484zm0.25782 0.4082 0.10351 0.13282zm0.25 0.28125 0.13281 0.12891zm7.4023 0.0274 0.46484 0.42578zm0.52344 0.47461m0.41992 3.0254-0.01 0.082zm-0.68945 5.5352m-103.2 1.2852m-0.56054 0.13477-0.21289 0.13281zm-0.31446 0.22265-0.16406 0.24024zm-0.23242 0.41406-0.0566 0.20899zm80.578 0.23829 0.61523 0.73632zm-80.666 0.20703-2e-3 0.0996zm103.91 1.0742m3.2988 1.2539m-3.2187 0.49609m1.5058 0.51172m-1.1992 1.5449 0.0664 0.45117zm-24.133 1.3594-0.0547 0.11524zm69.502 1.6152m-147.9 1.1172-0.17188 0.69141zm102.05 2.793m-401.81 0.48042m409.75 3.9863m-0.55468 0.12109m-14.514 1.5781 0.24024 0.15234zm55.283 0.43359-0.43164 3.6816zm-58.746 1.4453 0.26758 0.16602zm11.793 0.0508-0.11523 0.10938zm-11.396 0.0684m5.4336 5.8516m-102.24 2.1758-0.14843 0.57617zm96.594 13.729 0.28125 0.0859zm0.54688 0.19532m-5.7832 0.5664m3.3594 0.32617-0.16797 0.1875zm-3.4023 0.16407 4e-3 0.0215zm2.2559 0.41211-0.10938 0.0156zm-93.939 0.65429m104.54 4.127m2.6914 0.11132m-2.5274 1.1953 0.42969 0.67968zm7.8477 2.666m-21.76 1.1738-0.0625 0.20703zm26.947 2.3789m-26.643 0.30078-0.19141 0.45117zm-0.51172 2.1055m-88.398 1.2285 1.9902 2.8047zm121.56 0.75391m3 2.9531m0.98437 0.58789 0.14649 0.12891zm-122.23 1.2812 0.23047 0.16993zm122.63 0.43164m-120.28 3.7969m119.34 2.5723 0.66796 0.98437zm-117.74 3.334 0.46485 0.99414zm-0.90624 6.7285-4e-3 0.60156zm-0.91407 4.1212m2.8711 5.8086 0.16601 0.9336zm-0.63086 2.5742m68.01 24.582m0.34766 0.918m-66.217 3.5039m-0.20508 4.7851m0.89063 5.8243 0.76758 1.8027zm-4.9961 8.6484 0.58008 0.7891zm-6.6914 0.1504m15.365 0.3203 0.19141 0.2324zm-3.9609 2.2637m4.3223 2.5527m-10.293 0.4883m1.9492 4.2109m12.627 3.7168v0.012zm-18.998 1.4668m20.561 0.078m-13.291 2.1817m4.625 0.6719m10.516 0.3164m-15.289 0.207m1.0781 0.096 1.2305 1.4395zm-3.4629 0.9043m2.6035 0.2441 0.85938 0.8711zm-2.5215 0.1914 0.7207 0.1zm1.9863 0.627m1.8438 0.5957m-3.5566 0.1348m3.1641 0.7812m0.30273 0.051 0.50977 0.7207zm-2.5195 0.2207m7.4199 0.068m-6.4805 0.2109m21.357 0.8398m-20.564 0.4922m2.8672 0.023m-7.6191 0.014 0.58008 0.7207zm2.1113 0.3262m23.02 0.709m-22.541 0.1152 1.3691 1.0801zm5.9551 0.094m-2.2852 0.1972m0.86719 0.3047m-8.0957 0.2852m7.2422 0.4355m15.807 0.3985m-14.451 0.5254m3.6016 0.6406 0.64844 0.7187zm-6.3418 0.7187 0.94141 1.2305zm2.6055 0.6211m-1.8887 0.7852m3.3906 0.4336m-0.35351 0.7305m2.5644 0.018m-4.7266 0.082 0.13867 2.5918zm18.262 0.6836m-15.703 0.1855m-3.6387 0.062m19.174 0.049-0.0156 0.1153zm-20.975 0.67 0.78906 0.3613zm7.1309 0.07 0.64844 0.8007zm-3.1719 0.291 0.21094 0.7988zm2.0488 0.2871m1.959 0.8183m0.17382 0.7735 1 0.8594zm0.23047 0.9394m13.559 0.7676m3.1074 4.5195m-16.617 3.2735-0.5 0.9394zm17.119 0.9726m-1.7188 3.1915m-17.277 1.2968m-1.2129 0.01m18.402 0.209m-13.363 0.5097-0.21875 0.7911zm-2.7383 0.2911m5.0273 0.2578m-4.0879 0.7519 0.57031 0.791zm6.8398 0 0.72071 0.6504zm-8.1308 0.918m9.3516 0.1621 0.71875 0.3594zm-12.469 0.098m2.8203 0.3164m2.5977 0.2363m1.2207 0.1387 1.0801 1.5117zm1.9394 1.2207 1.2988 1.3711zm1.7637 0.791m-8.1797 0.4355m19.633 1.1446 0.28125 0.5214zm-16.168 0.5898 0.36133 0.7188zm-2.1113 0.09m4.4277 0.092 3.0156 8.0977zm-3.0352 0.2481 0.65039 1.0801zm-0.57031 0.9297m-1.1016 0.3945m1.1719 1.1953 0.20899 2.2305zm2.3164 0.211m-3.375 0.068m2.9277 1.5899 0.7207 0.291zm12.381 0.6484m-6.2598 1.082m-7.2715 0.5 0.7207 0.4297zm13.764 0.7637m-8.9394 3.7168m5.0371 2.8691-0.57031 1.0801zm-2.8477 0.049m3.9941 0.8593m-5.2988 0.062m19.49 1.0743m-17.348 0.3261 0.92969 1.2989zm1.5449 0.1211m2.084 0.6602m2.4102 1.668m-0.72071 0.6503 1.1602 1.5098zm100.77 0.07-1.8678 11.701zm-5.9512 2.84m-95.459-1.373m4.7324 0.3105m1.0977 0.092 0.85937 0.9414zm-8.5703 0.1504m6.3848 0.3223m1.7441 1.9082m-4.3223 1.1445m5.9141 0.076 1.5098 1.0097zm-7.0606 0.2187 0.28907 1.4395zm3.6699 0.07 3.0293 1.8692zm88.641 0.4297m-84.189 0.5859m-5.3398 0.1075m11.838 0.2461-0.65039 1.291zm-5.8301 0.2109 0.5 0.7207zm-1.7285 0.07 3.6699 2.4492zm-2.8106 0.3359m105.05 0.3946 0.7207 0.4297zm-102.21 0.5722m8.9785 0.1934m-9.4395 0.049m3.0645 0.3047m-0.85547 0.3828m-5.8848 0.2168 1.5195 0.8008zm8.166 1.6934m28.416 0.4609 3.7266 14.836-9.4883 2.4004 20.602 1.6562zm10.342 4.8731 0.24609 0.3222zm-42.971-2.5664m7.6465 0.8222m-1.9394 3.209m5.0312 1.1582m2.0762 0.1231m-3.9707 0.7265m12.773 2.9707-0.7207 0.2793zm1.0176 0.2637m2.6367 0.666m-11.139 0.5938m19.51 0.1933m-12.676 0.082m13.258 0.9746m-12.107 0.2461 0.79102 0.6504zm4.9004 0.1406 0.57032 0.7305zm-5.584 0.709m1.9766 0.2383m-1.0723 0.7832 0.70898 0.2187zm2.9492 1.7988 0.65039 0.7207zm51.072 0.4199m-40.76 0.9297m-4.8281 0.1035m5.8711 0.4258m16.662 0.086m-13.977 0.055-0.58008 0.7207zm9 0.1446 1.1211 1.246-0.28321-1.1992zm10.359 0.5058 1.4492 0.5703zm-19.07 1.5098 0.72071 0.5zm22.918 0.045m-1.9688 0.3848m-19.59 0.58 0.29101 0.5704zm1.8477 0.3301m1.1133 0.5313 0.70898 0.4297zm12.828 0.9492m2.1426 0.9199m2.3789 1.5195 0.65039 0.7207z"
        fill="#ffffff" fill-rule="evenodd" stroke="#fff" stroke-width="0.5">
        <title>Peru</title>
    </path>
    <path
        d="m1374.8 375.59-86.041 19.512-57.227 37.465-55.039 74.375-6.4609 64.145 4.748 13.824 0.4688 6.8008 8.623 9.2754 15.795 19.373 23.566 26.393 46.041 6.084 35.691-6.1758 28.637-3.3242 17.91 16.016 16.65-0.93554 7.3046 31.309-1.7753 22.777 19.91 32.385 7.1895 34.449-1.1993 92.279 27.961 80.244 28.02 44.34 83.32-48.41 27.228-60.387 24.131-39.717 16.72-60.77-7.06-47.173 84.92-117.96-18.43-19.865-46.361-21.867-38.459-50.635-30.27-68.664-0.9414-31.561-39.85 0.5957-59.469 0.47071-69.352-23.133zm163.84 51.871 0.3203 0.27148zm-253.98-33.311-0.2891-0.33008zm82.201-14.129m-2.9258 2.7852m1.2226 1.9199-0.027 0.21485zm-0.5917 4.1191m0.3222 1.25 0.1406 0.80274zm-0.076 5.4707-0.1992 0.99218zm-72.232 4.5918m68.584 1.5195m-2.2031 2.2305-0.092 0.29492zm24.211 1.4473m0.041 2.1035m4.5625 6.6309-0.1113 1.4492zm0.1524 2.418m-101.47 3.6719m-8.4688 4.0723m100.82 6.8926-0.033 0.35938zm-0.039 0.38281-0.1289 0.46094zm-2.0938 3.4375-0.8496 0.71289zm-3.1836 1.9219m-120.6 5.4746 1.0879 0.23047zm122.99 13.162m-128.12 12.986 1.7011 1.1602 17.365 12.566h-0.01zm5.8593 13.734 2.9914 40.243zm124.8 2.873 0.1093 0.17578zm0.2285 0.35351m3.5195 0.63282m106.47 3.6543 0.4356 18.393zm-97.246 4.6309m-4.2832 3.7422m177.26 3.0254m-154.07 0.75391m5.0079 3.8848m122.29 0.56641m-0.01 1.498m11.607 0.29296m-344.52 4.7969-0.1524 0.44531zm-0.1661 0.46875m-0.3359 0.40039m-27.438 0.0996m242.54 5.5547 0.5312 0.51757zm-104.12 3.1133m2.6465 0.91601m33.41 1.127m130.78 0.88086m-302.98 1.2285-0.6484 2.2324zm156.08 5.7285m83.973 4.1816-0.1621 2.8184zm172.47 7.3066-0.9629 1.5976zm-7.0918 5.4766-0.2813 1.0117zm-393.24 5.041m225.22 0.25586m163.83 0.5664 0.02 0.49219zm-401.03 0.20313m-0.3692 0.20312-0.1386 0.12305zm2.6055 0.39844 0.252 0.0117zm78.486 0.28906m320.36 1.7832m23.568 3.0156m-402.9 0.082 0.1426 0.39649zm0.1621 0.46094m281.09 0.88086m-3.7949 0.0898-0.5898 0.0605zm-218.08 0.10156-0.3808 1.3809zm-46.459 0.6875m45.268 0.85743m-4.1836 6e-3m323.22 0.45898-0.7773 2.1621zm-354.75 0.19727 0.2402 0.0762zm102.17 0.18359m-105.16 0.12891-0.2324 0.18359zm103.56 0.12109m-104 0.25195-0.3223 0.39258zm94.402 0.42383m-95.074 0.51367-0.1406 0.24414zm-14.85 0.65821m92.334 0.73632m-0.1836 2e-3 -0.1738 0.0117zm3.7656 0.3789m2.7363 0.38282m1.0489 0.24414 1.9023 0.0781zm-1.5254 0.29296m103.34 0.26758m182.12 0.20118m-376.88 0.38476-0.2422 0.19727zm-0.293 0.23633-0.5625 0.24609zm-2.4492 0.33203m0.041 0.0488m388.19 0.70312m0.4766 0.43946m-307.84 0.61914-0.2753 0.16992zm306.58 0.24414m-4.4043 0.0156 0.1875 0.21485zm-302.95 0.20899m303.31 0.15039 0.2247 0.15625zm-383.13 0.01m194.9 0.11328-0.2383 0.14258zm188.5 0.0547 0.7324 0.22852zm-188.77 0.125m-0.2343 0.53516 0.332 2.5371zm181.28 0.62109 0.2988 0.39258zm-301.69 0.4961m-0.2989 0.0137-0.2578 0.0488zm-72.537 0.0117m73.182 0.0273 0.4238 0.14062zm301.79 0.0606m-301.25 0.125 1.0176 0.43554zm325.15 0.17773m-304.72 0.48633m273.45 0.0137m32.947 0.43164 0.6523 0.58203zm0.6992 0.63477m-305.35 2.2617m32.484 0.23632m7.5586 0.0332m-135.95 0.0332m193.36 0.15039m-97.207 0.0586 0.6524 0.33594zm-29.666 0.10743m-85.965 0.40625m87.826 0.0391m-100.4 0.48633m223.54 0.0332-0.3633 0.27149zm-209.95 0.30273m158.95 0.19727m-79.32 0.26367m38.447 0.33594m-113.17 0.12109m136.62 0.0156-0.4395 0.92187zm282.84 0.2832 0.625 0.44922zm-404.7 0.2461m-14.846 0.0801-0.049 0.0645zm112.55 0.084m52.043 0.15234m-148.01 0.0957m-22.518 0.10743m207.11 0.16992m-201.95 0.0508m80.358 0.10742m-83.148 0.39063 0.3692 0.0273zm139.72 0.19726m31.406 0.19922m-186.08 0.10547m230.07 0.93555m210.62 0.0859m-252.25 0.17774m9.4843 0.2207-0.7461 1.0039zm-65.447 1.1445 0.5742 0.57618zm1.1875 1.1016 0.1035 0.0801zm96.781 0.11718m-91.072 0.39453m-4.8691 0.084m-123.74 0.14258m12.182 0.0527 0.5078 0.20117zm0.8964 0.3711 0.2207 0.082zm-4.6543 0.11914 0.1055 0.5zm5.1993 0.9375 0.1367 0.26757zm28.426 6e-3m-47.48 0.084m439.19 0.2207m-408.19 0.35938m18.318 0.0898 0.4492 0.57227zm89.975 0.20899m-116.95 4e-3m111.81 0.0898-0.031 0.0332zm-102.81 0.17968-0.4238 0.86719zm102.65 0.0391-0.01 0.0254zm93.045 0.0312m-93.105 0.14843m-84.062 0.3125m88.264 0-0.6562 0.11524zm228.13 0.29297 0.078 0.49219zm-319.31 0.0293-0.2246 0.12695zm-16.131 0.3164-0.01 0.041zm198.21 0.0137 0.062 0.11328zm-194.17 0.0137m194.27 0.17969 0.1191 0.57031zm-198.33 0.0996m114.91 0.55078m-103.61 0.0508m8.1719 0.26758m311.19 0.53125m-329.45 0.16796h0.022zm103.54 0.21094m-98.752 0.34766 0.025 0.0156zm14.111 0.0312 0.1055 1.1953zm-56.854 0.21289 0.291 0.71875zm2.1602 0.28711-1.0801 0.14453zm366.75 0.17578m-285.54 0.2207-0.031 0.01zm151.4 0.0215m-151.58 0.0254m67.867 1.0684m-93.369 0.39648m-41.404 0.0195m124.87 0.0117m-84.068 0.043 0.082 0.0527zm83.896 0.22461-0.3007 0.33203zm-141.24 0.74609m296.14 0.0977m-293.8 0.11719m367.45 0.22265m-357.58 0.11329m138.48 0.41601m83.889 0.0566-0.207 0.14649zm-174.21 0.37695 0.1191 0.66993zm90.6 0.57227 0.2051 0.33398zm147.5 0.11133 0.039 0.24219zm-293.47 4e-3 -0.789 1.2227zm55.461 0.10547m329.23 0.10743m-91.172 0.21874-0.1016 0.64063zm-291.05 0.22071m-6.2539 0.67578m121.24 0.16601m-63.93 0.19141m389.07 0.23633m-295.29 2e-3m-91.742 0.30664 0.248 0.14844zm70.648 0.11328m318.95 0.0488m-389.27 0.10156 0.039 0.0606zm59.746 8e-3m-18.148 0.0703 1.7969 0.0996zm0 0v0.81836zm12.043 8e-3m180.91 6e-3m-189.16 0.0879-1.5391 4e-3zm22.41 0.17774h0.092zm-118.87 0.14843m284.16 0.0293-0.8692 0.56445zm-169.93 0.21094-0.045 0.10351zm173.91 0.0117m-236.85 0.2832m41.283 0.22266-0.072 0.19531zm-0.1797 0.43164-0.3672 0.70312zm285.84 0.22851m-311.51 0.44336m-3.1015 0.64649m56.56 0.49804m-5.75 0.37305 0.1406 0.19727zm176.13 0.16602m-239.16 0.14257m20.916 0.27344m-14.818 0.41992m14.643 0.0859m43.92 0.51758 0.627 0.50586zm101.02 0.20898m-154.1 0.14844m58.541 0.7793 0.1836 0.12304zm183.46 0.0605-0.1856 1.8574zm-237.36 0.29297m272.29 0.0508m35.336 0.39062m-252.2 0.19922 0.1289 0.0898zm317.96 0.0957m-68.561 0.25586m-248.88 0.0312 0.1074 0.0918zm-30.404 0.14063 0.078 1.543zm-17.088 0.15234m237.01 0.16797 0.1719 0.5293zm-189.04 0.01 0.025 0.0293zm-97.447 0.13282m0.3398 0.0351 0.5254 0.0781zm196.58 0.11328m0.2618 0.0156 0.871 0.0977zm218.12 0.0176 0.125 0.16406zm-324.72 0.1582m235.73 0.0449-0.834 0.9668zm-228.57 8e-3m90.834 0.0664m13.371 0.0293-0.9726 0.10742zm-176.43 0.0547m-29.326 0.24804-0.4863 0.14453zm67.07 0.0391m51.162 0.14649-0.5762 0.41016zm153.09 6e-3 0.1289 0.52148zm-272.12 8e-3 -0.1074 0.0176zm-2.166 0.15234-0.062 0.0195zm283.53 0.11133m-28 0.0547-1.746 2.3516zm18.934 0.39063m-264.28 0.0156m318.52 0.0234-0.2461 0.25976zm-269.29 1.1602 2.0175 0.73047zm37.619 0.91602m156.21 0.56836m-157.08 0.2207m1.5352 0.0449 0.1562 0.0742zm20.816 0.11524-0.049 0.14062zm-20.547 0.0254 0.019 0.0195zm-24.367 0.16211m44.818 0.17383-0.072 0.74414zm-84.035 0.0215m38.922 0.18555m-39.441 0.0488-0.125 0.0215zm391.88 0.28711m-327.35 0.0937m94.053 1.1211m-86.738 0.20312 0.707 1.6816zm-71.285 0.0664m214.85 0.26758-1.6054 0.62695zm179.46 0.57226m-434.97 0.28125-0.1836 0.0156zm-0.4121 0.0742-0.066 0.0234zm280.35 0.39258m-200.03 0.0937 0.2226 0.46289zm166.39 0.0527-0.1055 0.0215zm-226.23 0.125-0.01 0.16406zm224.33 0.66015-0.1309 0.42383zm-46.391 0.29297-0.4961 1.0352zm-158.17 0.58203m63.498 0.36914m176.12 0.0586m-81.967 0.0488-0.2461 0.27149zm-76.307 0.2461m-100.72 0.125-0.057 0.28711zm225.56 0.17383m38.728 0.32031m-89.758 0.3125m-81.99 0.12695-0.029 2.4102zm-86.668 0.57227 0.1035 0.0469zm0.3438 0.17968 1.3808 1.2598zm-3.9981 0.0801m171.88 0.15625m-172.72 0.0117m20.172 0.14844m-19.867 0.0156m15.451 0.64454 0.02 0.14257zm-9.4395 0.30859m9.5059 0.0449 0.1133 0.32422zm68.207 0.0742-0.2324 0.57227zm137.92 0.34961m-205.9 0.10547 0.1016 0.17969zm0.2168 0.33398 0.418 0.50586zm-9.9375 0.71094m261.51 0.0234m-250.92 0.0312 0.6973 0.74804zm66.338 0.16406m-76.627 0.68359m165.08 0.0215m-165.03 8e-3 0.068 0.36524zm11.162 0.13867m426.32 0.32813m-174.27 0.5625m-253.16 0.35003m188.01 0.16602m-105.44 0.43945 0.4903 1.8965zm109.42 0.79687m-191.89 0.0449-0.039 0.082zm-3.4317 0.43554 0.42 0.50391zm-6.5429 0.12891-0.029 0.23047zm196.03 0.0664m-120.07 0.22071-0.2656 0.86328zm-101.12 0.0488m25.09 0.17187m7.6133 0.10156-0.1836 0.084zm-0.1992 0.0937m322.04 0.0274m-320.62 0.0371 0.1719 0.0898zm0.3711 0.16797m183.17 0.18164-0.7519 0.0371zm-2.3848 0.0605m74.076 0.1543m-256.42 0.21875m154.76 0.46484m26.461 0.33399m-187.17 0.38086m91.385 0.3125-0.1523 1.4492zm-16.326 0.94922m-68.295 0.15429m144.05 0.40821m117.08 0.56445m-185.92 0.6582m9.084 0.51563 0.02 0.18359zm55.221 0.13086-0.1582 0.13672zm-0.2129 0.1875-1.041 1.3945zm-54.945 0.17187 0.1074 0.60352zm-16.615 2.1211m-69.334 0.18945m139.12 0.25586m-139.79 0.70312 0.084 0.0703zm1.5332 0.48047m0.5332 1.0566 0.6172 0.0957zm134.66 0.67383-2.3965 2.6367zm131.09 0.94531m-224.59 2.959-0.035 1.0137zm229.54 0.46679m-263.9 0.54688m124.84 0.49219-0.1054 0.68945zm201.65 2.0215m-158.79 0.71094m-43.842 0.26367-0.082 0.26758zm141.2 0.24609m-14.969 0.13672m-126.34 0.0195m-88.025 0.91016m-0.6348 0.041-0.416 0.0723zm88.48 0.29492-0.019 0.0742zm136.05 0.0918m-51.619 0.34374 0.6309 0.35547zm192.33 0.26954-0.2285 0.1914zm-401.16 0.0723-0.4883 1.9199zm249.12 0.0957m18.945 0.40235 0.6406 0.76367zm128.12 0.14062 0.7149 0.0742zm-127.46 0.66211m-34.57 0.92969 0.3379 0.34766zm49.02 0.44531m104.45 0.0547m-118.15 0.35742m62.043 0.0899m-5.3457 0.0664m-213.51 0.82422-0.5 1.2246zm165.38 0.043m-163.22 0.31836m217.95 0.0391 0.027 0.0234zm-60.686 0.41992m3.7226 0.0606m61.502 8e-3m-119.36 0.14063 0.055 0.0391zm11.836 0.94531-0.3086 0.56836zm-57.574 0.23438 0.084 0.23242zm144.85 0.31054m50.41 0.21485-1.3868 0.58593zm-138.18 0.0644-0.043 0.0508zm-56.836 0.041 0.078 0.16993zm114.14 0.0488m-60.291 0.19532 1.8711 0.30664zm-52.941 1.0312m144.54 0.82617m0.2676 0.60351 0.3691 0.24805zm44.041 0.11524m-50.93 0.66015 1.0234 0.30274zm-11.074 0.0879m-3.8828 0.0234m4.0097 6e-3 0.1504 0.0449zm6.0938 0.13867m-181.51 0.0176m173.51 0.75586m3.1328 0.32031m50.26 0.10742m-31.178 0.0293-0.045 0.32422zm-132.59 0.50586-0.3262 0.0918zm105.08 0.75195 0.209 0.35743zm66.439 0.39063m-180.26 3.1719 0.059 0.0469zm4.0899 0.98438m-1.1543 3.9082m110.27 0.63281m1.5976 0.4336m-138.47 1.0625m-21.688 0.53125 0.1036 0.0332zm162.36 0.0195m-137.44 0.01m-14.982 0.15234m-3.3516 0.0156m-4.8925 0.0742m35.242 0.65039m2.7813 0.57618m121.6 1.3887-0.5743 0.73633zm-117.05 0.19531m-64.289 1.1504-0.1016 1.5117zm-4.1114 0.73828 1.605 0.21865zm54.545 1.7148m-0.4024 0.0234m-0.9219 0.13867-1.0039 0.29102zm-1.9101 0.61329m160.5 1.7812-0.8652 1.0918zm-186.82 0.7539m-0.9493 0.19141-0.7871 0.13476zm33.744 1.1719 0.025 0.0918zm0.043 0.20899 0.019 0.3789zm151.41 1.7266m-32.764 0.3125-0.019 0.67188zm-121.54 0.87305-0.037 0.0351zm147.65 0.35156 1.3711 21.33-13.16-8.4629zm5.1777 13.133m-33.113-8.8535m-119.52 2.2246 0.027 0.0156zm1.7637 1.6289 0.3496 0.10157zm-40.809 1.3594m64.166 2.7812m100.54 0.82812m-1.8652 0.95899m1.4727 0.43359 1.3359 2.9375zm-5.4785 1.2031-0.336 0.12695zm-0.3887 0.15234-0.6953 0.38672zm-1.2578 0.59766m3.0019 0.1582 0.4063 4e-3zm-5.5625 2.5879m-97.055 2.1367-0.082 0.10937zm-27.525 0.4082m6.627 0.4961m123.6 1.8652 1.1601 0.57227-1.1601-0.57032zm-140.31 0.15234m145.7 0.57617m45.314 0.37305m-56.15 1.6621 0.4844 0.50586zm-1.2715 0.0918m10.992 0.10351m-144.53 1.3594m147.06 1.4414m-1.9122 0.01 0.3243 0.0977zm1.7364 0.0215-0.5254 0.0977zm-1.2227 0.0977 0.459 0.0176zm1.1875 0.26172-0.019 0.0977zm-12.301 0.0176 0.3028 1.1426zm64.248 0.2539m-51.978 0.0723 0.012 0.12891zm-12.182 2.1738 5.5403 33.217zm3.8965 18.053m7.3652-17.775-0.6855 0.69531zm190.21 0.53906 5.8804 4.808zm-190.98 0.55079m53.988 0.55273m-55.215 0.125m-0.3262 0.54688m56.738 0.67773 1.7812 1.668zm-57.654 2.8106-1.293 1.3828zm-113.04 1.5781m-8.8086 1.1133m-0.1504 0.0117-0.1719 0.0293zm0.6524 0.13086 0.3105 0.18555zm-1.2305 0.0391-0.4453 0.23047zm119.66 0.17188m-120.22 0.12109-2.666 0.38281v-4e-3zm119.64 0.19727-0.2188 0.0742zm-122.6 0.61523-0.025 0.0586zm-0.1504 0.4375-0.064 0.25391zm-4.6054 0.56836m9.3085 0.31445v0.0606zm0.129 0.73047 0.096 0.41407zm0.2031 0.89453m-7.7266 0.17188m8.461 0.14844m192.16 0.55078m-2.8105 7.1992m-171.27 9.709 0.2735 0.64844zm28.49 0.37305m-2.1387 0.17578m-6.0527 0.61719m0.1074 0.75-0.01 0.0605zm9.8222 1.6973m-11.228 2.4531m156.09 1.2148-1.5801 2.4512zm-156.15 1.166m-13.807 1.832m4.2168 0.16797m82.18 3.5391m21.266 3.7383h0.064zm6.373 2.9473 0.064 0.0312zm0.2442 0.0742 0.209 0.043zm2.8125 0.97851m-84.674 0.30469 0.5527 1.8301zm51.367 0.14844 0.1016 0.23242zm0.1817 0.41992 0.1269 0.42187zm41.359 0.30859 3.5488 36.83zm-41.227 0.13672 0.1289 0.9043zm36.934 0.4707 0.1113 0.0488zm-36.789 0.56055m35.754 3.2246 0.061 0.17187zm-35.697 4.3262 0.014 0.73438zm86.277 2.0918-0.5547 0.35547zm-121.93 1.1172-0.2051 0.40039zm-3.4199 0.69531m2.7851 0.0664-0.4765 0.13672zm-10.141 0.56446m128.7 0.01-1.5235 0.90821zm-126.74 0.0371m11.58 0.17969 0.2324 0.32422zm-16.143 0.0781 0.096 0.33399zm0.1855 0.77344v0.041zm22.93 0.49024-0.4824 0.0508zm140.91 0.082 4.1802 1.6959zm-141.91 0.0566-0.6289 0.12109zm98.398 0.12695m-99.643 0.14844-0.4179 0.11914zm103.44 0.80469-0.098 0.0449zm-5.7227 0.58789-0.1914 0.24414zm-15.486 0.25781-0.6894 0.35742zm-4.6172 1.1367 0.877 0.0312zm-61.726 0.26758m76.184 0.19531 0.2871 0.25391zm-6.8711 0.23633m10.273 0.0625-1.8965 0.46484zm-90.465 0.61914m178.92 1.9141-18.443 30.805-21.109 32.367 14.41 50.859 33.5-84.773zm-154.85 1.0176m7.5605 0.49219m-12.896 2.1074 0.1543 0.10547zm0.877 0.43164m-32.131 0.57617m183.73 5.9394 0.5 1.7305zm-141.23 0.34961m-57.949 0.35547m58.262 0.27149-0.061 0.12109zm1.1953 0.0879-0.019 0.25195zm-1.2636 0.0508-0.023 0.41992zm1.2207 0.35547-0.047 0.18554zm-0.127 0.36133-0.068 0.11132zm-0.1133 0.15429-0.1894 0.0859zm25.164 5.2129m0.6094 0.62305 3.6133 4.043zm8.6484 2.6973m0.1016 0.0215 0.2597 0.10156zm-2.9297 0.61328m-19.166 0.94531m33.488 0.98047m-42.834 2.5508 0.1093 1.1406zm-3.0567 5.3789m4.3242 0.0273m-0.4687 0.0957-0.2852 0.0312zm41.65 1.2637-0.8535 2.0859zm-41.17 0.14844 0.6757 1.4219zm-10.016 0.54687-1.2949 1.2129zm14.984 1.3301m34.219 0.70703m-319.67 0.25977m216.86 0.33307m93.836 0.48438m5.8047 2.1074m111.43 1.8555m-128.21 0.17382m-37.643 1.248-0.1191 0.084zm55.041 0.77734m-168.01 0.48633m-0.584 0.28516-0.2598 0.15039zm150.53 0.0234m16.234 0.0293-0.088 0.25782zm-0.094 0.29102v0.0937zm-167.48 0.15039-1.1602 0.72461zm167.74 0.36719 1.0019 0.0742zm-169.24 0.53128-0.2617 0.125zm8.3711 0.55273 0.4023 0.30469zm33.826 0.99414m1.5136 0.38672 0.029 0.0254zm109.52 0.10742 0.094 1.4082zm-65.65 0.42774m-0.3965 0.0254-0.3555 0.0605zm5.7988 0.96093 1.2481 1.2031zm-11.787 0.14258m72.27 0.6211m-58.492 1.0566m3.414 0.15625m-25.859 0.11719-1.7187 0.37695zm24.758 0.0273-0.4512 0.0449zm-6.7149 0.85742-0.1875 0.19922zm-2.3633 0.0703m15.668 0.13086m49.127 0.89844m-0.9278 6.1992-0.9707 0.76172zm26.002 0.21875m-27.303 1.3477m-0.01 0.0957 0.043 0.24219zm1.164 1.3555m-0.3808 4.2246m1.0136 0.32617m-0.4433 3.6582m-2.4649 4.0215m-37.072 3.5469 0.049 0.50781zm35.518 3.3144m0.1113 4e-3 0.1074 0.0352zm-0.3281 0.0703-0.336 0.17383zm-0.4121 0.22461-0.2735 0.19922zm-0.5 0.39063-0.2813 0.26172zm23.81 1.0391-0.3594 2.2383zm-115.58 3.9004m85.482 2.2598-1.1113 1.2363zm-1.4472 1.6758m-21.207 1.207-1.5996 0.51562zm22.684 7.0801 0.01 0.0508zm2.8243 8.9336 0.07 1.2812zm-44.982 2.7188-0.2304 0.0762zm-44.01 0.38672m88.892 3.3906m-66.057 0.99414-0.8535 0.41407zm-19.123 0.01m22.352 0.63672m2.4942 2.1641 0.3906 0.14844zm10.791 0.96094-0.09 8e-3zm-3.6621 0.70508-0.076 0.0195zm-1.6328 0.0293 0.5097 0.0762zm1.1718 0.0742-0.5136 0.0156zm-30.752 5.4922-0.1348 0.36328zm9.584 1.6133m-1.4161 0.55469-0.023 0.084zm-6.4433 0.91992m1.4375 0.13086 1.9238 0.32227zm-3.1465 0.42187m-27.25 10.09m-2.334 3.6426-0.2461 0.18359zm4.7324 0.57617 0.02 0.0937zm10.152 2.6856m-0.4766 0.0273-0.3554 0.041zm4.2969 0.13281 0.076 0.10547zm-5.7148 0.0762-0.4083 0.0645zm-0.8575 0.1211-0.053 4e-3z"
        fill="#ffffff" fill-rule="evenodd" stroke="#fff" stroke-width="0.5">
        <title>Djibouti</title>
    </path>
    <path
        d="m1182.8 23.92-32.043 3.1836-1.5098 2.1719-29.77 2.8867-37.802-1.9082-46.038 8.5332-57.064 13.123 5.7207 8.1172 5.2246 7.5918 37.449 6.7305 5.8301 15.91 3.6992 5.6289 6.5195 5.1328-18 4.1426 15.84 12.6-13.312 5.5566-0.01 1.6348 6.3399 0.2207-5.1094 4.1758-11.43 4.6797 15.84-0.85937-20.09 8.4219 3.3106 5.9043 7.289-2.0879-6.4902 7.9922 1.3867 6.1504 3.584 10.629 5.6895 5.3965 12.891 1.3692 4.5801 3.459 3.7597 6.0176 7.8301-5.8789 3.0899-8.6387 5.3105-7.0547 12.32-6.3379 11.449-15.355 21.16-2.9355 31.1-19.01 52.75-10.154-10.602-8.6894 1.7813-1.8242 5.8711 2.7617 10.16-4.5527-12.602-9.293 13.471-5.3574 24.76-5.5879-6.4101-9.8477-4.75-3.7617 10.996-5.7695-5.4453-4.4551 15.139-12.037 3.2911-3.1797-19.609-1.3301-36.32-5.8359-5.3399-4.5449 4.3125-3.834zm-166.44 124.53-0.065 0.0351zm-0.065 0.0351-0.6836 0.24024zm1.9903-15.764m-0.2481 0.0703m5.8516-6.2754-0.6075-0.0391zm-5.4961-0.11719-0.6504 0.64844zm137.43-101.42m-4.6875 0.27539m-5.5137 0.49414m5.4433 0.32031m-33.16 1.2715m-3.8438 0.16406m-8.9004 0.49024m14.477 0.39453m-9.1523 0.85156m-17.19 1.3828m143.49 0.55664m6.6758 0.38477m357.92 1.2305m-357.57 0.33594m377.63 0.2168m-385.96 0.25781m366.62 0.50195-1.7305 0.14453zm14.33 0.07422 1.6601 0.07031zm-19.672 0.29687m-2.8535 0.78516m10.209 0.07813m-22.104 0.21094m192.62 0.19727 11.576 3.5449zm-165.1 0.04102m143.87 0.11133m-146.36 0.31835m25.392 0.06836m-65.807 0.30859m36.621 0.03516-1.5801 0.06836zm12.988 0.08984m-29.527 0.04883m17.549 0.07617-0.8594 0.14453zm100.02 0.67578m-139.74 0.30274-0.09 0.38672 1.5117-0.2168zm53.564 0.04297m-14.205 0.14453m-17.312 0.05273m-32.277 0.24609m-128.1 0.54688m-409.85 0.41016m410.34 0.10547m174.09 0.04687m5.123 0.01563-0.789 0.14453zm-25.68 0.09375m4.3164 0.18359m3.8282 0.23047m14.014 0.14453m-165.11 0.06836-10.068 4.8242 12.379-4.1758zm-1.3301 0.73242-0.3184-0.22852zm159.95-0.72852h0.789zm-8.2051 0.17774m2.664 0.17773-0.7187 0.14453zm3.2207 0.16016m-13.4 0.05469m16.484 0.16211m-20.564 0.12695 1.5898 0.14453zm-159.92 0.0332m175.03 0.13672m-106.08 0.42578m80.871 0.13086m48.045 0.16016m-152.49 0.19336m329.62 0.0059 16.56 5.3984zm-180.5 0.27734m-46.264 0.25391m196.74 0.04297m-189.75 0.10352m-164.63 0.15039-24.674 2.8398 20.061 4.5391 3.5293 6.7637 14.93-4.4629zm200.83 0.44137m-226.8 1.0723m383.73 0.24805m42.051 0.21484 1.4394 0.2168zm-113.54 0.43555m78.373 1.1875m2.6563 0.05859m47.912 0.12305 5.8691 1.7188zm-397.59 0.0957m-180.63 1.0488m183.61 0.68555m39.234 0.91406m-231.88 0.32227m145.46 0.22461m-139.37 0.08398-0.8007 0.7207zm216.81 0.55469m-218.5 0.58984m193.77 0.30859m-199.15 1.3574m1.6035 0.60547m613.2 0.01953m-621.12 0.56445m213.3 0.0098m412.67 0.10547m-618.11 0.26172m-7.7383 0.67383-0.791 0.07031zm-3.9667 0.34961m16.994 0.60352m600.22 1.3418-28.93 11.793-34.272 5.041 1.2109 7.2559-37.291 11.49-16.485-2.0034 31.196 32.746-24.189 14.111 0.5097-11.188-32.361-37.293 5.4414 30.539-51 0.10157-32.65-1.6133-41.33 14.312-7.0508 7.8633-40.719 5.543-13.31-4.334 8.3691-4.4356-23.09-19.756-12.609-5.3418-13.029-8.4219-12.932 1.2578-15.129 4.8945-13.6 0.35937-10.27 3.9902-9.1269 8.1777-7.5547 2.0176-8.5 5.1777-7.709 5.9668-3.1602 9.0059-4.58 3.748-3.8711 7.0566-13.279 4.209-5.8672 4.8457-10.943 4.6406-3.2207 1.8652 6.3613 5.7754-8.9902 1.7109 4.4652 6.9825-0.5746 5.1112-0.3496 3.7461 30.44-5.7852 14.891 31.312 25.568-23.23 4.291-15.549 0.459-18.719 34.791-21.303-14.334 34.09 27.103 8.0938 15.44 5.1719-23.318 10.859-17.951 21.723-17.029 7.3887-29.189 6.791-18.746-0.22852-2.4649-17.725-15.119-3.8848 10.629 24.863-26.51 7.8633-10.453 10.42-41.348 13.371-11.064-4.4199 30.955-12.816-21.709-34.863-0.5214-18.954-18.059 13.239 0.8028 6.0606 1.916 8.3066-15.199-2.0684-15.69 12.111-2.9199 12.143 14.539 2.5977 20.245-11.943 4.435 14.996 0.42 11.461-5.2696 13.176 13.529 11.766 7.1113 14.645-56.891 22.746-4.9199 35.865 20.773 15.891 11.976 4.9226 32.414-28.177 35.759-33.108 25.678-6.7802 28.68 26.393 24.891 27.314-7.9394-35.148-18.781-24.076 12.772-1.3125 29.547 21.348 20.155 30.562 7.898 16.526 13.83-5.4355-1.3711-20.232 20.791-17.811 14.247-23.699 12.438-14.586 27.955 13.383-6.6933-8.2207 4.2149-2.7056 19.988-0.46819 25.09 25.5 48.279 8.4688-0.9003-29.836-15.43-38.703 41.73-5.3438 39.721 1.8144 3.1192-21.973 40.52-15.221 35.781 10.484 54.43 25.701 45.959 10.887 53.721-2.7227 51.609-2.7207 85.27 3.627 38.5-28.725 67.689 38.047 35.022 25.25 4.4394 21.168 23.68-48.281-40.52-43.34-26.709-3.9316 21.27-37.898 44.75 2.4199 16.23-20.662 35.279 0.70508 3.4297 9.373 8.1601 45.861 40.52 13.305-15.32-33.262-10.889-21.166 35.379-9.375 9.7812-14.414-2.621-9.0703-1.4102-8.1641 23.58 0.10156 15.022-2.9238-19.65-10.584-39.311-9.9785-82.65-11.389-61.49-2.1172-83.459-15.824-11.689-0.10156-33.762 7.0566-54.129-2.7227-20.26-12.297-38.854 3.0273-52.467-6.5547-13.91 2.0176 8.4707-16.432-45.56-7.9609zm500.74 64.709-4.9414-1.3086zm-1041.1 250.79 0.1-0.40235zm0.1-0.40235-0.1309-0.36914zm-57.272-6.2695-0.2481-0.51758zm196.36-135.32m-54.996-37.768m-37.148-18.488m-349.35-116.87-1.5898 0.28711zm736.59 0.77734m-735.66 0.0059m-24.162 0.29687m881.24 0.03906m-886.89 0.02734m890.79 0.71875m0.8047 0.78906m-89.074-0.57617m35.709 0.72852m-37.916 0.25195m5.0156 0.10938m-109.39 0.8457-47.984 11.82-3.3105 10.223-8.6602 9.5059 13.16 11.303-0.4902-13.037 5.8613-11.01 21.898-9.0527zm-50.885 42.195-1.5097-0.0703zm193.46-41.736m6.3672 1.084m259.71 0.0098m-841.56 0.26367m582.83 0.07031 1.5898 0.9375zm-11.301 0.06641m6.7695 0-2.3789 0.28906zm-4.6093 0.0039m-585.08 0.42969m-244.97 0.25195m246.52 0.12109m-0.3985 0.48633m-248.68 0.36523m250.94 0.125m672.46 0.02344m-673.21 0.41016m591.9 0.19336m-10.57 0.55078m293.09 0.28711m-70.715 0.12305 33.258 8.7305-19.721-7.2656zm-395.1 0.01953-2.2988 0.28906zm186.84 0.57031-2.2989 0.50391zm-190.3 0.21484-0.8593 0.14453zm117.54 0.46289m-120.05 0.19141-1.6504 0.36133zm0.5801 0.28516-0.791 0.14453zm113.69 0.0059 3.0899 0.43164zm57.379 0.42969-0.789 0.14453zm217.87 0.14258m25.85 0.86719 1.6602 0.35938zm32.277 0.95898m-329.21 0.40039m-510.8 0.70703m-13.014 2.2695m552.4 0.48438m-6.9902 1.1504m5.1093 0 1.5215 0.35742zm-543.72 1.0741m507.08 0.14844 0.1 0.2168zm-704.24 0.14648-0.791 0.28711zm734.55 0.14062-0.7188 0.2168zm1.9355 0.08984m3.0352 0.06055m135.43 0.14258m-874.42 0.0098m392.45 0.23242m340.49 0.04492m-547.56 0.42969m550.98 0.09766m159.8 0.40625m128.62 0.58008m-26.738 0.28516 6.9903 2.5215zm-259.48 0.35742 1.5801 0.14258zm-14.91 0.2207v2e-3zm3.1192 0.0078m6.2734 0.90234m10.838 0.30859 1.5098 0.50391zm199.15 0.36521 1.6601 0.64844zm91.635 0.0957m-1035.8 0.10156m-2.3672 0.5957m1.9239 0.28516 0.8007 0.14453zm-0.8594 0.58008m955.44 0.21289 1.1504 1.0078zm-954.22 0.14062-1.5097 0.64648zm715.42 0.43555m-715.04 2e-3m693.14 0-2.9492 1.0801zm1.6465 0.20898m-697.68 0.08008h0.8008zm668.38 0.21289m-3.168 0.58203m-662.11-0.43555h0.7207zm164.02 0m424.29 0.35547m-585.36 0.07617-1.5801 0.71875zm-3.3106 0.06836-1.1504 0.64844zm669.6 0.07031-0.789 0.36133zm-669.67 1.0098-2.3008 1.1523zm697.34 0.4082m-9.7481 0.41016m-517.4 0.16406m542.54 0.4043m-711.86 0.0957m975.5 0.61328m-814.25 0.29883m816.31 0.04492m-978.65 0.08203 0.7207 0.14258zm165.84 0.0957m-164.11 0.19336m-3.5117 0.4668m3.8711 0.61328-1.5098 0.64648zm705.39 0.50586m-710.07 0.12891m3.5723 0.10547m-2.9238 0.41016-0.7207 0.07031zm2.5195 1.0098-3.8184 1.0801zm-4.6836 3.1641-1.6602 0.28906zm1042.6 1.6152m228.97 0.6543m-232.71 0.04492m-1026.9 0.62305m569.71 0.81055m-570.6 0.23633m-3.4629 0.48242m429.2 0.93359m1.7285 1.2949h0.3516zm-185.27-1.2031m174.89 0.56445-0.7188 0.0684zm-0.8359 0.36133m-412.36 0.35156m1153.6 0.28516 2.3007 0.79101zm-1021.2 0.26172m275.17 0.61133m-407.62 0.57809m411.66 0.19727 1.209 1.3027zm-1.1601 0.58398m-409.61 0.51367m592.35 0.0156m-593.36 0.0488 0.7207 0.21679zm139.15 0.0723m-157.44 0.36133m622.75 0.25781m-199.09 0.47266m-420.71 0.55859m402.06 0.28516m2.2187 0.082m6.3106 0.10547m-6.5195 0.61523-0.9395 0.0703zm-4.3204 0.35938m3.0196 0.15039m45.924 0.125m-33.104 0.1582 0.5 0.28711zm806.45 0.0879m-810.54 0.0195m-5.8399 0.17976m-389.57 0.54297m394.66 0.0195m30.334 0.88086m-272.93 0.48633m295.03 0.58789m-69.461 0.57422 0.4023 0.4082zm0.4023 0.4082m273.8-0.39258m-670.85 0.27344 0.7188 0.0684zm570.31 0.23437m54.65 1.2051 3.0313 1.4395zm-236.35 0.34766m28.688 0.24414-0.082 0.0195zm-0.3809 0.10742m248.43 1.0312 3.8203 1.1504zm-251.44 0.39063m-1.6777 0.0801m30.035 0.0391m18.533 0.0781-0.211 0.0898zm-77.609 0.0566m3.8613 0.30469m4.1367 0.0996m-8.6953 0.0957m224.66 0.0352m-211.95 0.0762m45.604 0.24805-0.1367 0.0312zm16.588 0.0684m-16.906 0.0195m17.541 0.0684 0.5527 0.11718zm-63.906 0.31054m38.291 0.0391m188.88 0.15039-3.0195 0.35937zm-616.18 0.64844-0.7109 0.21679zm1.6113 0.0664m-2.541 0.14453-0.791 0.2168zm434.51 0.36914-0.072 0.0508zm-57.029 0.37891m-378.28 0.19141-0.7188 0.35937zm386.85 0.11718-1.0059 0.60352zm10.205 0.21485m-397.7 0.16797-1.3711 0.79296zm582.86 0.0234m-202.12 0.1211m-5.5488 0.86718 0.6504 0.64844zm-1.0801 0.14649m5.9102 0.36133-0.8008 0.36132zm-251.63 0.41797m242.84 0.52539m-364.16 0.0332m362.88 0.31445m-373.54 2e-3 -0.7891 0.28711zm396.8 0.33593m-9.3672 0.16211m-3.0136 0.3711m82.08 0.90234 1.2637 0.82617zm-86.627 5.2168-0.791 0.0703zm84.545 1.8008 0.072 0.29101zm0.166 0.5039m-88.549 0.082m13.856 0.15625m-393.92 0.18359-1.5098 0.43359zm697.68 0.0664m-152.64 6e-3 0.7207 0.14453zm-334.72 2.0879-32.119 7.877-10.898-4.1738 6.5274 3.5684 2.0644 6.8438 4.4199 7.2715 36.139-15.479zm167.04 1.8359m-0.3614 0.39649-0.7207 0.28906zm-2.6464 0.16992m13.715 0.33008-1.0684 0.084zm-1060.4 0.0195-1.6582 0.85156zm1058.1 0.0606m-10.574 0.92968m-282.78 0.50977-1.58 1.1504zm-7.2109 0.55859m5.3418 0.0137-0.7207 1.0078zm-2.2109 1.2109m282.55 0.0508m-374.3 0.32813-1.5098 0.64844zm477.01 0.11719m-43.207 0.75195 0.7207 0.0703zm-434.48 0.22851m76.635 1.3066m438.95 1.1309m-3.0313 0.18555m-509.94 6e-3m371.47 0.27344m104.87 0.0254-0.4414 0.16406zm-0.5469 0.23047m-28.725 0.11133m65.227 0.24218-0.7207 0.14453zm24.48 0.56836 0.4395 0.79297zm-169.91 0.15039m18.254 0.0254m-16.658 0.10938m-302.26 0.29883m1.8554 3.5859m1326-3.2637m-856.73 0.78321m-58.742 0.13867m-109.53 0.33203m-1.0097 0.51562 0.9394 1.0078v-2e-3l0.709-0.0703zm1.2988 0.0645 0.7207 0.35937zm-365.06 0.42187m473.59 8e-3m-472.36 0.0254m169.5 1.3437-0.4941 0.0801zm-172.9 0.32813m61.988 0.26953m-2.6933 0.15234m324.11 0.33594m-8.3164 2.0957-3.1523 3.0176zm60.125 0.97851m-83.412 0.5m0.8047 0.95313m-5.0527 1.5508m3.5527 0.46484m79.41 0.0723-0.7911 0.28711zm0.9394 0.29101-0.7207 0.0703zm-5.6133 0.40039m-75.797 0.16016m-2.1524 0.40234m-292.14 0.28125m-56.152 0.0547-0.3613 0.7207zm345.53 0.42774m1.2989 0.0762-0.2891 0.64648zm-346.9 0.1914m486.83 0.50782 0.3984 0.46679zm-432.4 0.0176-1 1.1504zm452.02 0.75782 9.4805 14.199-3.9004-10.332zm-165.6 0.47265h0.7891zm-0.6504 0.92969m-82.449 0.45703m-209.01 0.76758m288.01 0.79492 0.7188 0.0703zm0.4395 0.27344m-1.8809 0.15234m-1.2597 0.88867m-330.81 0.69532-0.7207 0.35937zm326.95 1.4941m-326.66 0.88672-0.7207 0.28906zm482.28 1.5508 3.7617 12.797zm-481.2 0.3879-0.7207 0.14453zm329.24 1.4316m-327.31 0.96289m-1.1347 0.63672-0.7891 0.14258zm15.793 0.27539 0.295 0.084zm307.71 0.29687 0.791 0.64649zm-320.91 0.9375m11.478 1.1465m452.13 0.0195m-98.059 0.31055m-332.86 0.0371-1.5098 0.14648zm253.07 0.95508 0.082 0.83984zm-275.17 0.0508-1.5098 0.57617zm1.8691 0.5-1.5898 0.5039zm271.68 0.0742-0.1 1.6562zm1.416 0.57812m174.69 0.0606-0.3184 0.31054zm-177.21 0.0137m39.1 0.0684-0.7207 0.14453zm98.682 0.084m-99.471 0.49024 0.7891 0.57617zm81.139 0.28906m21.24 0.0742m-102.67 0.35734m-303.91 0.0703-0.7187 0.43164zm0.3067 0.0547m393.89 0.23438m16.059 6e-3 -0.3691 0.21485zm-411.71 0.0918m411.57 0.19141m-60.152 0.17578m59.002 0.1289m-16.008 0.12696 0.2891 0.93554zm20.52 0.14648m-5.3203 0.50586-0.7188 0.28711zm-1.6602 0.0703 0.6504 0.28711zm-399.76 0.37891m-2.6465 0.0488 0.2911 0.7207zm-1.1328 0.28906m393.21 0.23242-0.7597 0.19727zm-88.258 0.37305m-303.93 0.20703m4.3926 0.0254m0.541 0.10352-0.4394 0.71875zm388.51 0h0.7891zm15.26 0h1.7285zm-106.56 0.27929 0.58 1.8008zm969.48 0.0801 0.7188 0.72071zm-1270.5 0.11328m340.9 0.62696m-40.48 0.33984m81.957 2.291m-82.246 1.0215m-50.621 0.42969 0.5801 1.0078zm90.775 0.0117 0.018 0.0937zm-87.676 0.49218-1.3691 0.86329zm87.736 0.12696-0.7949 2.6719zm939.5 0.41797m-85.303 0.65429-0.035 0.96485zm-946.41 0.041m133.2 0.27344-0.5 0.7207zm25.711 0.14062m3.459 0.29102m-30.75 0.13867-0.7188 0.35937zm-132.91 0.79492 0.7207 1.2246zm2.8106 0.7207-0.3594 0.86329zm187.41 0.3418m-26.273 0.99219m-2.2383 0.6543m-179.99 0.86328m111.61 1.582m0.211 1.7578-0.9414 0.0703v2e-3l-0.4297 0.7207zm46.111 0.62891m-1.5664 0.60351m-51.965 1.3613m-105.62 0.5m-6.0157 0.0293m214.41 0.6289 0.7305 0.19727zm2.2246 0.47852m-208.68 0.22851-0.4297 1.5137zm-8.1816 0.19141m-0.1133 0.83984m152.95 0.26758m-37.799 0.22266m-109.5 2.2715m95.596 0.67578m118.12 0.66993m-214.75 1.4863-1.2988 1.0078zm-2.1953 1.2754m191.63 1.4023m9.6387 0.99023m0.1758 0.12696 0.5254 0.24804zm-195 0.60351m114.31 0.27539-7.8261 10.52zm-5.8828 1.2852-0.2734 0.0273zm104.55-1.2422m-110.23 1.0508 0.2305 0.37891zm0.2305 0.37891m-106.71 0.23047m229.08 0.82422m506.18 0.27724-14.129 32.674zm-729.08 0.37305 0.4395 2.377zm202.42 0.3125m-88.652 0.33984-0.8007 0.14453zm-12.961 0.20899m129 0.30468m860.41 1.918m-962.2 0.93945m782.15 0.22657m-708.67 0.42383m706.22 0.38085m-805.16 0.0547m77.104 0.14453m-84.283 0.20899m5.3887 0.0918m11.908 0.0977m-25.957 0.23438m-107.83 0.01m31.394 0.082-5.3184 12.624zm87.869 0.0723 1.4414 1.2969zm-10.529 0.64258m1015.2 0.29297 6.9785 2.8808zm-1010.9 0.20117m-4.2207 0.70117m-105.15 0.38867m931.85 1.1504 1.3008 1.4394zm-917.83 0.19531m107.51 0.18946m-122.57 0.0547-0.1543 0.0801zm934.77 0.0723m-719.22 0.77344-0.3476 0.44726zm751.33 0.0215 41.721 61.412 2.0605-17.895-37.301-37.686zm-766.7 0.72656m16.522 0.43946m-1.3242 0.33789 0.043 0.19726zm-207.28 0.19336m207.32 0.0957m1.0527 0.24609-0.1211 0.0645zm-0.1875 0.0879-0.4668 0.0859zm-230.49 1.3652m216.64 0.21484m7.0039 0.0176m-4.3164 0.30078m52.023 0.94531-0.4257 0.0605zm3.5079 1.7168 0.6621 0.39258zm0.7011 0.41406 0.3028 0.18164zm-172.3 0.60157-1.5098 0.35937zm173.28 0.16797 0.1485 0.25195zm-175.72 0.0391-2.2304 0.79297zm-3.5293 1.4434-0.7207 0.5039zm172.93 0.64648 0.2832 0.0684zm-174.01 0.22266-0.5801 1.4394zm171.52 0.64844-0.033 0.17773zm-0.033 0.18164 0.166 0.43554zm0.3223 0.65429 0.1504 0.1543zm-111.37 0.7168m-48.1 2.1719-0.2207 0.10352zm1.0625 1.8184 0.053 0.0449zm176.02 0.90821 0.6113 0.59765zm-13.469 1.5723m-53.596 0.14844 0.1485 0.20899zm0.209 0.33594 0.047 0.12109zm-110.15 0.89844m156.97 0.11328m22.365 0.0273 1.0527 0.67188zm-127.71 0.34375-0.2441 0.41211zm128.9 0.42188m-198.88 0.0723m-1.0567 0.76563v2e-3zm198.65 0.56054m-68.272 0.1875m25.111 0.26172m-0.6016 0.0547-0.3633 0.0723zm2.7793 0.01m-1.8301 0.0352 0.8262 0.45117zm9.2266 0.0195m10.381 0.13867 0.3829 1.7715zm-13.189 0.13282m-32.658 0.42968m-123.8 0.33008m2.1113 0m155.69 0.0937m7.6133 0.13281-0.3672 0.0527zm28.668 0.83985m-191.15 0.12109 4.4218 1.5332-0.01 8e-3zm166.1 0.3086 0.057 0.0273zm0.873 0.0195-0.7676 0.0293zm-174.83 0.58789m-0.3457 0.0684-0.2403 0.0195zm203.59 0.14258m-0.4453 0.1621-0.1641 0.0469zm3.6953 1.1543m-137.9 0.0879m4.291 0.20313m-0.205 0.082-0.025 0.0293zm133.76 0.17187 0.01 0.0606zm-133.87 2e-3m926.44 0.46875m-985.75 0.0977 0.059 0.15039zm57.041 0.28907 0.1875 0.13281zm934.88 0.0781m-933.6 6e-3m60.234 0.54687m871.57 0.42188m-990.96 0.0273 0.4179 0.0274zm-47.07 0.0469m166.72 0.0684 0.4258 0.66992zm-139.6 0.0488 0.4766 0.0527zm1.3848 0.16797m69.152 0.0859-0.166 0.0723zm-0.248 0.11133-2.3711 1.3125zm18.262 0.15234m-1.3653 0.25977m-65.148 0.16602 0.098 0.1289zm67.32 0.44335-0.047 0.082zm-0.064 0.10352-1 0.86524zm-67.23 0.21289m-18.949 0.0137m64.24 0.34961m151.54 0.2793m-126.12 0.0195 5.6113 1.2949v6e-3l-5.6113-1.2969zm0 0.0156 0.6289 1.3379zm-4.6777 0.1289m-82.887 0.0977m210.95 0.0391 1.3672 0.17383zm-209.52 0.44531m0.6856 0.0996 0.2382 0.0605zm55.832 0.11133m-55.014 0.21289m53.789 0.29297 0.2832 0.3457zm160.46 0.0996 0.3515 0.15039zm1.1875 0.22266-0.3965 0.0645zm-210.71 0.54296m-4.375 0.49219m90.008 0.25196 0.098 0.23632zm0.2012 0.39648 0.037 0.0469zm-89.57 0.59375 0.7383 0.0742zm1.5195 0.01-0.166 0.0332zm-0.3027 0.0547-0.2422 0.0117zm230.48 0.5586m-136.74 0.61914m905.95 1.3398 0.7891 3.0234zm-878.25 0.4082-0.098 0.35938zm115.74 0.0312m-2.6114 0.0703m-134.91 0.0898m21.66 0.39648v0.23633zm-25.045 0.44336m0.9942 0.37696-0.1485 0.0859zm15.096 0.0469m-15.48 0.16992-0.3633 0.12696zm8.9472 0.0977-0.1113 0.0371zm-3.8105 0.20703m-45.857 0.60352m61.418 0.76172 0.072 0.043zm-101.02 0.0957m983.84 0.23437 0.791 0.79297zm-983.46 0.28907 0.047 0.10742zm103.28 0.20703m-167.55 0.10351m283.06 0.45508-0.2793 0.16602zm-113.49 0.0293m113.13 0.23047-0.025 0.0371zm0.031 0.54882m-161.4 0.20118m926.4 0.0937-0.4395 1.5117zm-938.81 0.46875m15.312 0.46679 0.4395 0.15821zm160.11 0.0274m-155.06 0.24218 0.094 0.0215zm-12.932 0.11133-0.1211 0.0645zm9.5859 0.0293-0.062 2e-3zm-9.9296 0.20703-0.053 0.0586zm166.93 0.10938-0.125 0.2207zm-167.26 0.34765-0.08 0.17578zm-0.1426 0.375-0.057 0.40235zm-2.9336 0.34375m18.066 0.23047 0.012 0.14258zm26.594 0.0195 0.83 0.18555zm-48.934 0.0918 0.1308 0.0215zm57.182 0.58984m-11.215 0.11719-0.062 0.21094zm11.318 0.47852m31.676 0.14843m-0.2832 0.0762-0.1113 0.0351zm-66.062 0.37109v0.0898zm154.32 0.30273m-80.725 0.15625 1.6582 1.0176zm-8.6289 0.25977m11.822 1.0606m838.56 0.0644 0.3594 0.57617zm-836.21 0.27148m-39.832 0.0645 0.062 0.0293zm-67.402 0.0469 0.014 0.0449zm67.525 0.0293 0.2305 0.21094zm-67.459 0.14062 0.1562 0.23633zm29.541 0.30664m-29.166 0.18165 0.1953 0.21679zm89.178 0.0293m-21.676 0.0996m20.914 0.0449-0.3184 0.0254zm-88.074 0.21485 0.055 0.0898zm109.09 0.45898m-69.406 0.32031 0.09 0.0899zm135.92 0.0293 0.3789 0.0527zm0.8613 0.0703-0.1856 6e-3zm767.06 0.35743-0.209 0.64843zm-769.36 0.01m-108.79 0.19727m-94.152 0.12304 0.4863 0.16602zm53.223 0.43946m85.76 0.63867m-84.953 0.12695 0.2207 0.18359zm-60.584 0.11524m25.16 0.92578-0.1367 0.0625zm34.984 0.33593-0.3769 0.34961zm-36.303 0.28125-0.084 0.0254zm-0.1934 0.0352-0.078 6e-3zm-97.367 0.22852 1.0782 0.86328zm92.055 0.1289m128.22 0.0703m-151.03 0.16211m63.859 0.20704-0.035 0.20898zm-0.084 0.55273 0.031 0.71094zm88.58 0.51562v0.10157zm0 0.11915m-88.537 0.13867 0.1035 0.54297zm917.78 0.33984m-946.65 0.38672m29.189 0.68555m-41.144 0.12304m-85.402 0.13086m85.857 0.70703m75.461 0.0684m-71.334 0.21094-0.9062 0.63281zm-1.2382 0.62891 0.2207 0.0137zm129.04 0.21484 0.037 0.0606zm-12.064 0.31445 0.4609 1.2441zm12.226 0.0156 0.025 0.0566zm-95.422 0.0742m0.3535 0.082 0.2578 0.0918zm0.6836 0.29492m-6.2246 0.0449m3.1328 0.10938-0.5215 0.11328zm-36.434 0.0625m134.18 1.2324m-90.879 0.0527m-44.408 0.10352m131 0.13086m-142.32 0.01m-11.924 0.0762 0.4063 0.0645zm17.977 0.23437m36.08 0.17578-0.2618 0.0527zm-30.156 0.0977 0.018 0.043zm41.641 0.0254m-41.58 0.14648m40.289 0.0664-0.053 0.11524zm-43.383 0.11328-0.5469 0.0664zm49.268 0.5625 1.041 0.73438zm-23.207 0.52149m930.8 0.0488m-1032.2 0.0254m206.31 0.16211-0.01 0.33789zm-63.301 0.0332m-0.6426 0.13086-0.039 0.0215zm58.242 4e-3m-50.693 0.0566-0.5078 0.11719zm-23.896 0.0742m-75.978 0.0391m156.26 0.0352m-149.63 0.9707m0.094 0.1875 0.064 0.34375zm-56.48 0.14454m101.5 0.30273m36.051 0-0.2598 0.0625zm-0.5293 0.15234m-8.8535 0.0508m20.873 0.28515 0.5918 0.54883zm-33.273 0.19141-0.334 0.27148zm-59.891 0.32031-0.2012 0.17187zm46.375 0.41602 0.1738 0.0742zm29.117 0.0918m-17.881 0.21485m-5.1699 0.73242m5.5351 0.15039m89.772 0.1289m-94.582 0.25782 0.2715 0.15429zm0.5566 0.26758 0.1406 0.0547zm-52.721 0.0293 0.2774 0.36133zm967.61 0.44727m-822.3 0.01m-97.611 0.0586m0.08 0.0117m-47.375 0.0215 0.037 0.0664zm93.062 0.0703m-38.445 0.043 0.078 0.0371zm-6.211 0.14844 0.096 4e-3zm95.908 0.0937m-98.654 0.16992m103.23 1.1699m-52.775 0.28516m-31.027 0.32617m2.1524 0.0371m-1.7442 0.0371m1.3438 0.0645-0.051 0.0332zm-6.4414 0.125m-9.2949 0.01m32.978 0.0332m-34.762 0.1875m27.488 0.63281 0.6543 0.0566zm-80.084 0.0781m81.123 0.0606 0.2129 0.0547zm4.2227 0.22461 0.035 0.32812zm-2.875 0.20117 0.07 0.0254zm0.1367 0.0586 0.043 0.0254zm-20.004 0.0918v0.26758zm22.777 4e-3 -0.068 0.43946zm15.723 0.17969m-16.029 0.74805m-1.5782 0.11523 0.1778 0.11914zm0.2422 0.15235 0.08 0.0352zm-28.412 0.40625 0.7188 0.43164zm-52.525 0.60937-0.2597 0.8086zm52.814 0.46875m52.59 0.19336m-55.25 0.30859 1.2207 1.4395zm905.58 1.1602m0.027 0.0117m-852.19 0.0918m-19.976 1.6172 0.8418 0.70118zm-30.35 0.36329 0.7207 0.57617zm54.109 0.23828m-21.971 0.79883m-31.338 0.18945m55.744 0.27148 0.018 0.0996zm-54.094 0.084 0.7188 0.5039zm78.666 0.1289m-48.664 0.5586-0.1289 6e-3zm56.703 0.0312h0.6074zm1.4141 0.10742m-12.553 0.44726m13.668 0.43165m-88.516 0.0273 1.5098 1.1523zm907.92 0.0703-1.5097 0.7207zm-850.77 0.33203m-0.6797 0.0566-1.5371 0.16016zm1.543 0.0586 1.4277 0.45117zm4.7871 0.87695-0.7793 0.12305zm-60.061 0.32617 0.791 0.35938zm26.785 0.41406v0.01zm-0.051 0.0645m-3.9004 0.82812m0.1172 0.0469 0.1426 0.0566zm-18.131 0.0156-0.7207 0.0703zm18.002 0.24805 0.082 0.26367zm-17.211 0.83203m-1.0801 0.15039 0.7187 0.36133zm2.4219 1.4746m798.37 1.1816 0.9297 0.50391zm-922.66 0.0137-0.074 0.0625zm74.707 0.49414m56.844 0.0742-0.055 0.19727zm-5.1016 0.0332m21.467 0.27734m0.6543 0.17383 0.127 0.0625zm0.3516 0.24219 0.068 0.0723zm-16.312 0.0625 0.1914 0.0976zm33.891 0.0684-0.3477 0.0469zm-17.469 0.0234m-67.605 0.14649m-75.447 0.48046m124.61 0.4629m-122.51 0.0137m156.23 3.5156m-4.1172 0.63086-0.752 0.23242zm-1.1035 0.0645m-0.9414 0.35157m-0.752 0.54687m-205.6 0.0332m204.81 0.22461 0.5293 0.16796zm-205.39 0.15039m0.9902 0.83789-0.1289 0.15234zm201.19 0.45117m-190.59 0.082m-3.9707 0.0391m-4.4941 0.53516-1.6485 0.51172zm198.21 0.37695m-188.13 1.6172 0.6094 0.29101zm187.68 0.42969-0.1113 0.20507zm-186.93 0.0273m0.023 0.0801-0.086 0.33008zm186.49 0.3457m17.203 0.30859 0.031 0.17188zm0.053 0.34961 0.02 0.25391zm11.768 0.0117 0.5332 0.59766zm10.91 0.32032v0.0547zm-10.361 0.29101 0.2129 0.15625zm2.045 0.20899 0.7148 0.24804zm-1.7071 0.01 0.1563 0.0586zm0.6602 0.0645-0.4375 6e-3zm-9.2148 0.15235 0.5859 0.01zm-0.7715 0.0215-0.295 0.0254zm18.758 8e-3 -0.1758 0.0879zm-19.469 0.0977m-19.422 0.27149 0.6386 1.5156zm-78.992 0.66406 3.0371 14.225zm-111.96 1.0137m191.94 0.19727m-192.97 0.53906m199.41 0.81055-0.9414 0.18359zm-4.3867 0.10742m25.92 1.0879m-25.061 0.98633 0.051 0.44336zm31.906 1.4043m-32.447 0.0117-0.9668 0.93164zm-195 0.77735m193.51 1.2207-0.6269 1.0644zm-194.67 0.23828m193.08 1.5898m-115.9 6e-3m150.75 0.4668m-156.53 0.36328m120.89 0.71484m-4.4297 0.77149m4.1035 0.29883m-0.3711 0.64843-0.4277 0.11524zm-1.6796 8e-3m-191.12 0.0488-0.033 0.0137zm-3.3144 0.0234m238.59 3.0391m-18.168 1.457m-156.97 0.43359m154.08 0.5625m-214.14 0.33789m222.65 0.28906m-26.57 1.082-0.5801 1.916zm-339.58 0.23047m202.89 0.67188m-210.28 0.0371 2.9493 1.584zm-3.4629 0.80273m387.99 0.28125m-385.68 0.4707m347.68 0.60157 0.791 1.4394zm-0.5703 0.14453m-197.06 1.2051 0.1 0.14258zm161.68 0.27734m-161.36 0.13281 0.1817 0.17774zm0.4278 0.35743 0.2226 0.13476zm0.3027 0.16601 0.3711 0.0879zm0.8496 0.0391-0.3359 0.0469zm-0.01 0.15039-0.6738 0.90039zm225.62 1.7031m-359.86 0.72265m330.34 0.2129 1.5097 2.0156zm43.25 0.70507m-22.893 0.22266m20.393 0.80078-2.5215 1.5117zm-14.041 0.0703-0.5703 1.2969zm4.4004 2e-3 1.7207 1.0801zm-231.46 0.9082-0.012 0.14648zm234.09 0.60938m1.5215 2.7637m8.7285 0.0391 0.7207 0.64648zm-11.01 0.28711-0.1485 1.4394zm-359.46 1.0352m372 0.0371m-16.424 0.22461 0.3594 0.72071zm10.01 0.79102-1.8711 1.1523zm8.7597 0.0508m-109.3 0.61328m89.815 0.55748m5.5 0.22656m-3.3398 0.78125 0.789 0.43164zm-73.16 1.6504m97.35 0.0762m-37.58 0.50586v1.9434zm30.74 4.8242-0.2891 3.6719zm-24.98 1.2949m-295.96 24.432m24.266 31.797m-32.127 2.9258m29.281 0.7793m-16.559 1.4082m-8.5098 3.377m12.277 0.3418m-17.549 2.8438m-331.26 92.393m-3.8457 7.25m3.2129 2.8047-0.36133 0.9375zm-0.27539 9.5898 4.7159 0.51462zm-56.67 22.236 4.1872 0.46022zm108.11 56.797 13.416 12.107z"
        fill="#ffffff" fill-rule="evenodd" stroke="#fff" stroke-width="0.5"></path>
    <g fill="#f60">
        <path d="m2093.4 686.21c0.6 0.11967 0.6 0.11967 0 0z" fill="#f60" fill-rule="evenodd" stroke="#fff"
            stroke-width="0.2"></path>
        <path d="m2101.1 687.1c-14.091 23.097-15.897-22.376 0 0z" opacity="0" stroke-width="0.5"></path>
    </g>
</svg>